<?xml version="1.0" encoding="UTF-8" standalone="no"?>
<svg
   width="500.00049"
   height="165"
   viewBox="0 0 500.00049 165"
   version="1.1"
   xml:space="preserve"
   style="clip-rule:evenodd;fill-rule:evenodd;stroke-linejoin:round;stroke-miterlimit:2"
   id="svg9305"
   sodipodi:docname="fossi-logo-full.svg"
   inkscape:version="1.2.2 (b0a8486541, 2022-12-01)"
   xmlns:inkscape="http://www.inkscape.org/namespaces/inkscape"
   xmlns:sodipodi="http://sodipodi.sourceforge.net/DTD/sodipodi-0.dtd"
   xmlns="http://www.w3.org/2000/svg"
   xmlns:svg="http://www.w3.org/2000/svg"><sodipodi:namedview
     id="namedview9307"
     pagecolor="#ffffff"
     bordercolor="#666666"
     borderopacity="1.0"
     inkscape:showpageshadow="2"
     inkscape:pageopacity="0.0"
     inkscape:pagecheckerboard="0"
     inkscape:deskcolor="#d1d1d1"
     showgrid="false"
     inkscape:zoom="3.6564007"
     inkscape:cx="218.52091"
     inkscape:cy="81.774408"
     inkscape:window-width="3440"
     inkscape:window-height="1381"
     inkscape:window-x="0"
     inkscape:window-y="0"
     inkscape:window-maximized="1"
     inkscape:current-layer="svg9305" /><rect
     id="fossi-logo-full"
     x="2.76"
     y="1.637"
     width="7811.0498"
     height="3177.27"
     style="fill:none" /><clipPath
     id="_clip1"><rect
       x="2.76"
       y="1.637"
       width="7811.0498"
       height="3177.27"
       id="rect9256" /></clipPath><g
     clip-path="url(#_clip1)"
     id="g9281"
     transform="matrix(0.07221013,0,0,0.07221013,-32.242137,-32.047297)"><g
       id="g9279"><path
         d="m 1272.26,3178.9 -7.718,-442.176 h 164.64 l 1.067,61.152 c 6.108,-9.408 13.924,-18.958 23.448,-28.652 9.523,-9.693 21.926,-17.818 37.206,-24.375 15.281,-6.557 34.467,-9.835 57.559,-9.835 25.944,0 50.762,4.989 74.457,14.967 23.694,9.978 43.216,25.943 58.566,47.895 15.351,21.952 23.34,50.889 23.967,86.81 l 5.135,294.214 h -166.778 l -4.74,-271.549 c -0.254,-14.54 -5.865,-25.658 -16.832,-33.356 -10.968,-7.697 -22.724,-11.546 -35.268,-11.546 -7.983,0 -16.149,1.711 -24.5,5.132 -8.35,3.421 -15.246,8.481 -20.689,15.181 -5.442,6.7 -8.079,14.896 -7.91,24.589 l 4.74,271.549 z M 10.48,1812.21 2.762,1370.034 h 164.64 l 1.067,61.152 c 6.108,-9.408 13.924,-18.959 23.448,-28.652 9.524,-9.693 21.926,-17.818 37.206,-24.375 15.281,-6.557 34.467,-9.836 57.559,-9.836 25.944,0 50.762,4.989 74.457,14.968 23.694,9.978 43.216,25.943 58.567,47.895 15.35,21.952 23.339,50.889 23.966,86.81 l 5.135,294.214 H 282.029 l -4.74,-271.549 c -0.254,-14.54 -5.864,-25.658 -16.832,-33.356 -10.968,-7.697 -22.724,-11.546 -35.268,-11.546 -7.983,0 -16.149,1.71 -24.5,5.132 -8.35,3.421 -15.246,8.481 -20.689,15.181 -5.442,6.699 -8.079,14.896 -7.909,24.589 l 4.739,271.549 z m 7365,0 -7.718,-442.176 h 164.64 l 1.068,61.152 c 6.107,-9.408 13.923,-18.959 23.447,-28.652 9.524,-9.693 21.926,-17.818 37.207,-24.375 15.28,-6.557 34.467,-9.836 57.559,-9.836 25.943,0 50.762,4.989 74.456,14.968 23.694,9.978 43.217,25.943 58.567,47.895 15.351,21.952 23.339,50.889 23.966,86.81 l 5.136,294.214 H 7647.03 l -4.74,-271.549 c -0.254,-14.54 -5.865,-25.658 -16.833,-33.356 -10.968,-7.697 -22.723,-11.546 -35.267,-11.546 -7.983,0 -16.149,1.71 -24.5,5.132 -8.35,3.421 -15.247,8.481 -20.689,15.181 -5.442,6.699 -8.079,14.896 -7.91,24.589 l 4.74,271.549 z M 1272.26,445.52 1264.542,3.344 h 164.64 l 1.067,61.152 c 6.108,-9.408 13.924,-18.959 23.448,-28.652 9.523,-9.693 21.926,-17.818 37.206,-24.375 15.281,-6.557 34.467,-9.836 57.559,-9.836 25.944,0 50.762,4.989 74.457,14.967 23.694,9.978 43.216,25.944 58.566,47.896 15.351,21.952 23.34,50.888 23.967,86.81 l 5.135,294.214 h -166.778 l -4.74,-271.55 c -0.254,-14.539 -5.865,-25.658 -16.832,-33.355 -10.968,-7.698 -22.724,-11.546 -35.268,-11.546 -7.983,0 -16.149,1.71 -24.5,5.131 -8.35,3.421 -15.246,8.482 -20.689,15.181 -5.442,6.7 -8.079,14.896 -7.91,24.589 l 4.74,271.55 z"
         style="fill:none;fill-rule:nonzero"
         id="path9259" /><g
         id="g9277"><path
           d="m 4847.42,2735.02 c -61.009,0 -108.276,-21.168 -141.8,-63.504 -33.525,-42.336 -50.902,-98.713 -52.131,-169.131 -0.811,-46.47 5.258,-86.667 18.208,-120.593 12.95,-33.926 32.093,-60.083 57.43,-78.471 25.337,-18.389 56.109,-27.583 92.316,-27.583 11.118,0 22.397,0.998 33.835,2.993 11.439,1.996 22.685,5.203 33.738,9.622 11.053,4.419 21.349,10.406 30.889,17.961 9.54,7.555 17.831,17.034 24.872,28.438 l -4.255,-243.753 H 5107.3 l 11.093,635.468 h -117.6 l -21.254,-90.659 c -4.863,15.395 -11.108,29.222 -18.734,41.481 -7.626,12.259 -16.852,22.664 -27.679,31.217 -10.826,8.553 -23.327,15.11 -37.502,19.671 -14.175,4.562 -30.243,6.843 -48.204,6.843 z m -1438.57,0 c -45.614,0 -85.34,-9.694 -119.176,-29.08 -33.837,-19.386 -60.247,-46.113 -79.23,-80.182 -18.983,-34.068 -28.86,-73.197 -29.631,-117.386 -0.811,-46.47 8.1,-87.166 26.734,-122.09 18.634,-34.924 44.674,-62.079 78.119,-81.465 33.444,-19.386 72.119,-29.079 116.023,-29.079 46.185,0 86.201,10.049 120.05,30.148 33.849,20.099 60.132,47.682 78.847,82.748 18.715,35.066 28.464,74.979 29.245,119.738 0.766,43.904 -7.747,82.89 -25.541,116.959 -17.794,34.068 -43.341,60.867 -76.64,80.395 -33.3,19.529 -72.9,29.294 -118.8,29.294 z m 3019.11,0 c -45.615,0 -85.34,-9.694 -119.177,-29.08 -33.837,-19.386 -60.246,-46.113 -79.229,-80.182 -18.983,-34.068 -28.861,-73.197 -29.632,-117.386 -0.811,-46.47 8.1,-87.166 26.734,-122.09 18.634,-34.924 44.674,-62.079 78.119,-81.465 33.445,-19.386 72.119,-29.079 116.023,-29.079 46.185,0 86.202,10.049 120.051,30.148 33.849,20.099 60.131,47.682 78.846,82.748 18.716,35.066 28.464,74.979 29.245,119.738 0.767,43.904 -7.747,82.89 -25.541,116.959 -17.793,34.068 -43.34,60.867 -76.64,80.395 -33.3,19.529 -72.9,29.294 -118.799,29.294 z m -2584.21,0 c -17.961,0 -36.688,-3.065 -56.181,-9.195 -19.493,-6.129 -37.755,-15.181 -54.784,-27.155 -17.029,-11.973 -30.969,-26.584 -41.818,-43.832 -10.85,-17.248 -16.468,-36.991 -16.857,-59.228 l -5.434,-311.319 h 166.778 l 5.032,288.227 c 0.223,12.829 5.115,23.591 14.675,32.286 9.56,8.696 22.75,13.043 39.57,13.043 16.821,0 29.93,-4.347 39.329,-13.043 9.399,-8.695 13.986,-19.457 13.762,-32.286 l -5.031,-288.227 h 165.068 l 7.718,442.176 h -123.159 l -21.254,-90.659 c -4.904,29.364 -14.788,51.102 -29.651,65.214 -14.864,14.112 -31.31,23.307 -49.339,27.583 -18.028,4.276 -34.17,6.415 -48.424,6.415 z m 1477.48,0 c -27.654,0 -53.193,-5.417 -76.617,-16.251 -23.424,-10.833 -42.233,-26.727 -56.425,-47.681 -14.193,-20.954 -21.555,-46.684 -22.088,-77.188 -0.836,-47.896 17.544,-85.1 55.141,-111.614 37.597,-26.513 96.593,-39.77 176.989,-39.77 h 34.211 l -0.328,-18.816 c -0.249,-14.254 -4.351,-24.66 -12.305,-31.217 -7.955,-6.557 -20.337,-9.551 -37.148,-8.981 -11.398,0.285 -23.895,2.994 -37.49,8.125 -13.595,5.132 -23.681,15.253 -30.26,30.363 h -134.705 c 1.103,-34.781 11.018,-62.934 29.743,-84.459 18.725,-21.524 43.682,-37.204 74.871,-47.04 31.188,-9.835 65.741,-14.753 103.658,-14.753 51.316,0 91.616,5.844 120.899,17.533 29.284,11.689 50.093,27.868 62.427,48.537 12.335,20.669 18.738,44.545 19.211,71.629 l 5.464,313.03 h -137.699 l -15.764,-70.133 c -12.591,29.935 -28.482,50.533 -47.672,61.794 -19.189,11.261 -43.894,16.892 -74.113,16.892 z m 631.709,-337.833 h -96.646 l 4.348,200.134 c 0.115,6.557 1.414,11.546 3.897,14.967 2.483,3.421 5.731,5.773 9.745,7.056 4.013,1.283 8.443,1.924 13.29,1.924 h 69.277 l 1.717,98.357 c -5.937,2.851 -15.436,5.844 -28.495,8.98 -13.06,3.136 -32.846,4.704 -59.359,4.704 -46.47,0 -82.421,-5.773 -107.853,-17.319 -25.432,-11.546 -43.164,-27.013 -53.196,-46.399 -10.031,-19.386 -15.253,-40.91 -15.666,-64.573 l -3.628,-207.831 h -71.843 l -1.971,-112.896 h 77.83 l 40.36,-137.699 h 117.173 l 2.388,136.843 h 96.646 z m 746.841,329.28 -7.718,-442.176 h 164.64 l 1.067,61.152 c 6.108,-9.408 13.924,-18.959 23.448,-28.652 9.524,-9.693 21.926,-17.818 37.206,-24.375 15.281,-6.557 34.467,-9.836 57.56,-9.836 25.943,0 50.762,4.989 74.456,14.967 23.694,9.979 43.216,25.944 58.567,47.896 15.35,21.952 23.339,50.888 23.966,86.81 l 5.135,294.214 h -166.778 l -4.74,-271.549 c -0.253,-14.54 -5.864,-25.659 -16.832,-33.356 -10.968,-7.697 -22.724,-11.546 -35.268,-11.546 -7.982,0 -16.149,1.71 -24.499,5.131 -8.351,3.422 -15.247,8.482 -20.689,15.182 -5.443,6.699 -8.079,14.896 -7.91,24.589 l 4.74,271.549 z m -2517.92,0 -7.718,-442.176 h 164.64 l 1.067,61.152 c 6.108,-9.408 13.924,-18.959 23.448,-28.652 9.523,-9.693 21.926,-17.818 37.206,-24.375 15.281,-6.557 34.467,-9.836 57.559,-9.836 25.944,0 50.762,4.989 74.456,14.967 23.695,9.979 43.217,25.944 58.567,47.896 15.351,21.952 23.34,50.888 23.967,86.81 l 5.135,294.214 h -166.778 l -4.74,-271.549 c -0.254,-14.54 -5.865,-25.659 -16.832,-33.356 -10.968,-7.697 -22.724,-11.546 -35.268,-11.546 -7.983,0 -16.149,1.71 -24.5,5.131 -8.35,3.422 -15.247,8.482 -20.689,15.182 -5.442,6.699 -8.079,14.896 -7.91,24.589 l 4.74,271.549 z m 1970.96,-442.176 7.719,442.176 h -158.226 l -7.718,-442.176 z m 1039.61,442.176 v -167.634 h 175.331 v 167.634 z M 2710.7,2108.105 h 453.294 l 1.519,135.988 h -286.089 l 1.941,111.185 h 239.049 l 2.314,132.568 h -239.049 l 4.165,238.621 h -166.351 z m 2667.29,521.716 c 7.983,0 15.442,-1.425 22.377,-4.276 6.935,-2.851 12.924,-6.771 17.969,-11.76 5.045,-4.989 9.009,-10.62 11.893,-16.892 2.884,-6.272 4.406,-12.972 4.567,-20.099 l -0.971,-55.593 h -26.513 c -8.838,0 -20.07,1.64 -33.697,4.918 -13.628,3.279 -25.717,8.909 -36.269,16.892 -10.551,7.982 -15.7,19.243 -15.446,33.783 0.288,16.535 6.145,29.507 17.571,38.915 11.425,9.408 24.265,14.112 38.519,14.112 z m -493.258,-11.119 c 19.386,0 34.918,-8.481 46.595,-25.444 11.678,-16.963 17.136,-47.254 16.375,-90.873 -0.458,-26.228 -3.536,-47.396 -9.234,-63.504 -5.697,-16.107 -13.456,-27.796 -23.276,-35.066 -9.82,-7.27 -21.287,-10.905 -34.402,-10.905 -18.816,0 -34.784,7.983 -47.905,23.948 -13.12,15.965 -19.322,44.474 -18.606,85.527 0.762,43.619 7.99,73.91 21.686,90.873 13.695,16.963 29.951,25.444 48.767,25.444 z m 1541.98,-4.276 c 17.676,0 30.898,-6.058 39.667,-18.174 8.769,-12.117 14.498,-26.87 17.188,-44.261 2.69,-17.39 3.898,-33.926 3.624,-49.606 -0.278,-15.965 -2.06,-32.286 -5.345,-48.964 -3.284,-16.678 -9.515,-30.647 -18.692,-41.908 -9.177,-11.262 -22.603,-16.892 -40.279,-16.892 -17.96,0 -31.333,5.63 -40.117,16.892 -8.783,11.261 -14.598,25.23 -17.443,41.908 -2.844,16.678 -4.128,32.999 -3.849,48.964 0.274,15.68 2.13,32.216 5.57,49.606 3.44,17.391 9.755,32.144 18.947,44.261 9.192,12.116 22.768,18.174 40.729,18.174 z m -3019.11,0 c 17.675,0 30.898,-6.058 39.666,-18.174 8.769,-12.117 14.499,-26.87 17.189,-44.261 2.69,-17.39 3.898,-33.926 3.624,-49.606 -0.279,-15.965 -2.06,-32.286 -5.345,-48.964 -3.285,-16.678 -9.515,-30.647 -18.692,-41.908 -9.177,-11.262 -22.603,-16.892 -40.279,-16.892 -17.961,0 -31.333,5.63 -40.117,16.892 -8.784,11.261 -14.598,25.23 -17.443,41.908 -2.845,16.678 -4.128,32.999 -3.849,48.964 0.274,15.68 2.13,32.216 5.57,49.606 3.439,17.391 9.755,32.144 18.947,44.261 9.192,12.116 22.768,18.174 40.729,18.174 z m 2742.15,-506.321 2.448,140.264 h -158.225 l -2.448,-140.264 z m -2037.16,-121.449 c -31.931,0 -63.504,-3.992 -94.722,-11.974 -31.217,-7.983 -59.869,-20.099 -85.955,-36.349 -26.086,-16.25 -47.539,-36.706 -64.359,-61.366 -16.82,-24.66 -26.513,-53.668 -29.079,-87.024 h 169.344 c 3.136,14.54 9.265,26.941 18.388,37.204 9.123,10.264 20.954,18.175 35.494,23.734 14.54,5.559 31.217,8.339 50.033,8.339 17.106,0 33.285,-1.71 48.537,-5.132 15.252,-3.421 27.654,-9.194 37.205,-17.319 9.55,-8.125 14.325,-19.457 14.325,-33.997 0,-12.544 -4.917,-22.237 -14.753,-29.079 -9.836,-6.842 -22.522,-12.117 -38.06,-15.823 -15.537,-3.706 -31.859,-6.984 -48.964,-9.835 l -94.508,-16.251 c -47.325,-7.697 -85.456,-26.869 -114.393,-57.517 -28.936,-30.647 -43.975,-72.199 -45.115,-124.656 -0.57,-41.623 10.619,-77.188 33.569,-106.695 22.95,-29.507 53.74,-52.029 92.37,-67.567 38.63,-15.537 81.322,-23.306 128.077,-23.306 56.448,0 104.201,8.268 143.258,24.803 39.058,16.535 68.778,39.485 89.162,68.85 20.384,29.364 31.004,63.147 31.859,101.35 h -165.067 c -1.711,-15.966 -6.558,-28.866 -14.54,-38.702 -7.983,-9.835 -18.745,-16.963 -32.287,-21.381 -13.542,-4.419 -29.863,-6.629 -48.964,-6.629 -15.965,0 -29.293,1.497 -39.984,4.49 -10.691,2.994 -19.172,6.843 -25.444,11.547 -6.272,4.704 -10.763,9.907 -13.471,15.608 -2.708,5.702 -4.063,11.404 -4.063,17.106 0,13.969 4.419,25.23 13.257,33.783 8.838,8.553 26.514,15.252 53.027,20.099 l 94.935,16.25 c 44.19,7.698 78.828,19.6 103.916,35.708 25.088,16.107 43.548,34.282 55.379,54.523 11.831,20.242 19.315,40.341 22.451,60.297 3.136,19.957 4.704,37.632 4.704,53.027 0,35.066 -11.618,66.498 -34.852,94.294 -23.235,27.796 -54.809,49.677 -94.722,65.642 -39.913,15.965 -85.242,23.948 -135.988,23.948 z m -604.251,0 c -61.294,0 -114.392,-13.043 -159.294,-39.129 -44.902,-26.086 -79.612,-62.791 -104.13,-110.116 -24.517,-47.325 -36.776,-103.061 -36.776,-167.206 0,-64.431 12.472,-120.522 37.418,-168.275 24.945,-47.753 59.94,-84.815 104.985,-111.186 45.044,-26.371 97.643,-39.556 157.797,-39.556 59.869,0 112.184,13.185 156.943,39.556 44.759,26.371 79.54,63.433 104.343,111.186 24.803,47.753 37.205,103.844 37.205,168.275 0,63.86 -12.188,119.524 -36.563,166.992 -24.376,47.467 -58.943,84.244 -103.702,110.33 -44.759,26.086 -97.501,39.129 -158.226,39.129 z m 1184.13,0 c -31.931,0 -63.504,-3.992 -94.722,-11.974 -31.217,-7.983 -59.869,-20.099 -85.955,-36.349 -26.086,-16.25 -47.539,-36.706 -64.359,-61.366 -16.82,-24.66 -26.513,-53.668 -29.079,-87.024 H 4587.7 c 3.136,14.54 9.265,26.941 18.388,37.204 9.123,10.264 20.954,18.175 35.494,23.734 14.54,5.559 31.217,8.339 50.033,8.339 17.106,0 33.285,-1.71 48.537,-5.132 15.253,-3.421 27.654,-9.194 37.205,-17.319 9.55,-8.125 14.325,-19.457 14.325,-33.997 0,-12.544 -4.917,-22.237 -14.753,-29.079 -9.836,-6.842 -22.522,-12.117 -38.06,-15.823 -15.537,-3.706 -31.859,-6.984 -48.964,-9.835 l -94.508,-16.251 c -47.325,-7.697 -85.456,-26.869 -114.393,-57.517 -28.936,-30.647 -43.975,-72.199 -45.115,-124.656 -0.57,-41.623 10.619,-77.188 33.569,-106.695 22.95,-29.507 53.74,-52.029 92.37,-67.567 38.63,-15.537 81.322,-23.306 128.077,-23.306 56.448,0 104.201,8.268 143.258,24.803 39.058,16.535 68.778,39.485 89.162,68.85 20.384,29.364 31.004,63.147 31.859,101.35 h -165.067 c -1.711,-15.966 -6.558,-28.866 -14.54,-38.702 -7.983,-9.835 -18.745,-16.963 -32.287,-21.381 -13.541,-4.419 -29.863,-6.629 -48.964,-6.629 -15.965,0 -29.293,1.497 -39.984,4.49 -10.691,2.994 -19.172,6.843 -25.444,11.547 -6.272,4.704 -10.763,9.907 -13.471,15.608 -2.708,5.702 -4.063,11.404 -4.063,17.106 0,13.969 4.419,25.23 13.257,33.783 8.838,8.553 26.514,15.252 53.027,20.099 l 94.935,16.25 c 44.19,7.698 78.828,19.6 103.916,35.708 25.088,16.107 43.548,34.282 55.379,54.523 11.831,20.242 19.315,40.341 22.451,60.297 3.136,19.957 4.704,37.632 4.704,53.027 0,35.066 -11.618,66.498 -34.852,94.294 -23.235,27.796 -54.809,49.677 -94.722,65.642 -39.913,15.965 -85.242,23.948 -135.988,23.948 z M 5175.7,1535.927 v 442.176 H 5017.474 V 1535.927 Z M 2721.49,1359.741 h 453.295 l -0.855,135.988 h -286.089 v 111.186 h 239.049 v 132.567 h -239.049 v 238.621 H 2721.49 Z m 786.851,493.492 c 22.808,0 43.12,-5.773 60.939,-17.319 17.818,-11.546 31.787,-30.505 41.908,-56.876 10.121,-26.371 15.181,-61.793 15.181,-106.267 0,-45.9 -5.06,-82.605 -15.181,-110.117 -10.121,-27.511 -24.09,-47.396 -41.908,-59.655 -17.819,-12.259 -38.131,-18.388 -60.939,-18.388 -22.807,0 -43.12,6.129 -60.938,18.388 -17.818,12.259 -31.859,32.144 -42.122,59.655 -10.263,27.512 -15.395,64.217 -15.395,110.117 0,44.474 5.132,79.896 15.395,106.267 10.263,26.371 24.304,45.33 42.122,56.876 17.818,11.546 38.131,17.319 60.938,17.319 z m 1667.36,-493.492 v 140.264 h -158.226 v -140.264 z m -1310.28,-313.03 c -0.285,17.676 2.423,32.073 8.125,43.191 5.702,11.119 13.47,19.244 23.306,24.375 9.836,5.132 20.74,7.698 32.714,7.698 15.11,0 28.723,-2.851 40.84,-8.553 12.116,-5.702 21.595,-17.105 28.437,-34.211 h 147.107 c -4.561,32.786 -17.533,61.081 -38.915,84.886 -21.381,23.805 -47.396,42.122 -78.043,54.951 -30.648,12.829 -62.364,19.244 -95.149,19.244 -45.9,0 -86.312,-9.337 -121.235,-28.01 -34.924,-18.674 -62.079,-44.831 -81.465,-78.471 -19.386,-33.641 -29.079,-72.841 -29.079,-117.6 0,-42.194 8.909,-81.109 26.727,-116.745 17.818,-35.637 43.476,-64.288 76.975,-85.955 33.498,-21.667 73.909,-32.501 121.234,-32.501 48.181,0 88.379,9.979 120.594,29.935 32.215,19.956 56.377,47.254 72.484,81.892 16.108,34.639 24.162,73.768 24.162,117.387 v 38.487 z m -641.027,183.028 V 611.377 h 166.35 v 239.049 c 6.843,-8.553 14.896,-17.676 24.162,-27.369 9.265,-9.693 21.239,-18.032 35.921,-25.017 14.682,-6.984 33.57,-10.477 56.662,-10.477 27.654,0 53.17,5.631 76.547,16.892 23.377,11.261 42.193,27.867 56.448,49.819 14.255,21.952 21.382,49.036 21.382,81.251 v 294.214 H 3495.088 V 956.907 c 0,-14.539 -5.56,-25.444 -16.678,-32.714 -11.119,-7.27 -22.95,-10.905 -35.494,-10.905 -7.983,0 -16.036,1.782 -24.161,5.346 -8.126,3.563 -14.825,8.766 -20.099,15.608 -5.275,6.843 -7.912,15.11 -7.912,24.803 v 270.694 z M 2676.591,757.629 V 611.377 h 519.151 v 146.252 h -177.041 v 472.11 h -166.779 v -472.11 z m 1187.98,195.857 h 126.152 c 0,-11.118 -2.423,-21.453 -7.27,-31.004 -4.846,-9.55 -11.973,-17.176 -21.381,-22.878 -9.408,-5.702 -21.097,-8.553 -35.067,-8.553 -11.403,0 -21.809,2.851 -31.217,8.553 -9.408,5.702 -16.963,13.328 -22.665,22.878 -5.702,9.551 -8.552,19.886 -8.552,31.004 z"
           style="fill:#6320ee;fill-rule:nonzero"
           id="path9261" /><g
           id="g9275"><path
             d="m 448.87,1722.29 c -0.116,-11.558 -0.076,-23.118 0.122,-34.711 5.953,-349.173 151.028,-663.825 383.969,-888.956 230.081,-222.367 544.069,-358.801 888.956,-352.921 76.166,1.299 151.36,9.477 224.77,24.205 228.677,71.939 432.361,213.95 579.635,410.314 v 67.345 c -92.078,-96.539 -200.392,-174.42 -318.83,-231.136 -149.464,-71.574 -315.39,-108.366 -485.575,-105.465 -295.002,5.03 -559.939,129.669 -750.143,326.471 -187.439,193.942 -300.379,459.428 -295.422,750.143 4.884,286.434 126.291,543.509 317.377,728.188 188.227,181.916 446.04,291.139 728.188,286.328 135.078,-2.303 266.12,-32.26 386.661,-85.126 -156.615,76.662 -330.569,118.045 -509.653,118.045 -590.156,0 -1077.9,-441.952 -1150.06,-1012.72 z"
             style="fill:url(#_Linear2)"
             id="path9263" /><path
             d="M 983.507,2558.13 C 831.691,2363.676 741.802,2118.695 747.083,1853.19 c 6.037,-303.479 132.419,-576.775 335.442,-771.878 200.155,-192.348 472.684,-310.344 771.877,-304.393 168.689,3.356 331.788,45.451 477.225,121.822 69.27,36.375 134.63,80.24 194.695,131.073 v 184.605 c -75.989,-76.58 -164.324,-138.581 -260.405,-184.256 -126.757,-60.258 -267.387,-90.848 -411.514,-87.981 -249.309,4.959 -472.785,111.159 -633.064,277.943 -157.523,163.917 -251.768,388.041 -246.894,633.065 4.789,240.742 107.796,456.338 268.849,611.109 158.186,152.015 374.653,242.504 611.109,237.8 7.284,-0.144 14.553,-0.386 21.826,-0.726 -89.795,22.129 -182.835,33.645 -277.303,33.645 -226.043,0 -437.062,-64.837 -615.418,-176.888 z"
             style="fill:url(#_Linear3)"
             id="path9265" /><path
             d="m 1314.12,2699.71 c -1.327,-1.375 -2.661,-2.766 -3.991,-4.161 -167.797,-176.003 -271.215,-414.686 -264.959,-676.754 6.153,-257.786 113.786,-489.744 286.913,-654.799 170.25,-162.311 401.299,-261.916 654.8,-255.865 142.63,3.405 280.439,39.271 403.162,104.338 47.865,25.378 93.512,54.967 136.271,88.54 v 180.951 c -59.779,-56.968 -128.155,-103.332 -201.982,-138.069 -104.045,-48.954 -219.381,-73.315 -337.451,-70.497 -203.622,4.861 -385.612,92.664 -515.986,229.415 -127.631,133.873 -203.125,316.65 -198.367,515.986 4.657,195.056 89.323,369.141 220.322,494.031 106.134,101.186 244.537,167.74 397.346,185.011 -94.143,24.442 -191.921,37.18 -291.278,37.18 -98.274,0 -193.708,-12.256 -284.8,-35.307 z"
             style="fill:url(#_Linear4)"
             id="path9267" /><path
             d="m 1550.38,2734.02 c -132.211,-145.104 -213.418,-338.169 -207.109,-549.614 6.328,-212.098 95.112,-402.75 238.385,-537.721 140.379,-132.244 329.909,-213.537 537.721,-207.337 116.575,3.479 229.1,33.068 329.101,86.855 26.864,14.449 52.871,30.508 77.847,48.135 v 176.346 c -43.321,-37.915 -91.789,-69.077 -143.558,-93.059 -81.327,-37.675 -171.371,-55.76 -263.39,-53.014 -157.94,4.713 -298.4,74.197 -398.908,180.887 -97.78,103.796 -154.423,245.252 -149.838,398.908 4.457,149.376 70.888,281.894 171.793,376.952 58.346,54.965 129.393,95.9 207.943,119.115 -112.291,35.737 -230.699,54.548 -351.438,54.548 -16.251,0 -32.424,-0.336 -48.549,-1.001 z"
             style="fill:url(#_Linear5)"
             id="path9269" /><path
             d="m 1754.26,2724.57 c -74.714,-106.087 -118.44,-235.26 -112.898,-374.564 6.621,-166.414 76.358,-315.828 189.858,-420.642 110.578,-102.116 258.512,-165.259 420.642,-158.809 90.524,3.602 177.778,26.82 255.04,69.371 6.539,3.601 13.012,7.323 19.423,11.169 v 170.574 c -26.447,-19.973 -55.077,-36.758 -85.134,-50.321 -58.596,-26.441 -123.353,-38.155 -189.329,-35.53 -112.275,4.467 -211.114,55.784 -281.829,132.359 -68.017,73.654 -105.607,173.837 -101.31,281.829 4.126,103.716 52.528,194.55 123.265,259.874 15.157,13.997 31.553,26.542 48.995,37.542 -91.325,37.673 -187.634,63.757 -286.723,77.148 z"
             style="fill:#6320ee"
             id="path9271" /><path
             d="m 1962.78,2676.44 c -17.022,-50.118 -25.204,-103.908 -21.848,-160.004 7.209,-120.518 57.307,-228.66 141.088,-302.983 80.804,-71.682 186.747,-116.994 302.983,-110.04 49.313,2.95 97.183,13.375 141.32,32.201 v 135.703 c -1.714,2.287 0,17.818 0,28.566 -1.703,0 -10.344,-5.822 -15.518,-8.342 -3.586,-1.747 -7.241,-3.34 -10.903,-4.905 -35.723,-15.268 -75.07,-20.343 -114.9,-17.96 -66.43,3.974 -123.202,37.41 -164.169,83.59 -38.332,43.21 -56.26,102.014 -52.542,164.17 1.295,21.645 6.41,41.995 14.413,60.861 -69.593,40.56 -143.302,73.809 -219.925,99.143 z"
             style="fill:#6320ee"
             id="path9273" /></g></g></g></g><defs
     id="defs9303"><linearGradient
       id="_Linear2"
       x1="0"
       y1="0"
       x2="1"
       y2="0"
       gradientUnits="userSpaceOnUse"
       gradientTransform="matrix(2077.52,0,0,2289.49,448.805,1590.27)"><stop
         offset="0"
         style="stop-color:#f72585;stop-opacity:1"
         id="stop9283" /><stop
         offset="1"
         style="stop-color:#6320ee;stop-opacity:1"
         id="stop9285" /></linearGradient><linearGradient
       id="_Linear3"
       x1="0"
       y1="0"
       x2="1"
       y2="0"
       gradientUnits="userSpaceOnUse"
       gradientTransform="matrix(1779.46,0,0,1958.31,746.863,1755.86)"><stop
         offset="0"
         style="stop-color:#b5179e;stop-opacity:1"
         id="stop9288" /><stop
         offset="1"
         style="stop-color:#6320ee;stop-opacity:1"
         id="stop9290" /></linearGradient><linearGradient
       id="_Linear4"
       x1="0"
       y1="0"
       x2="1"
       y2="0"
       gradientUnits="userSpaceOnUse"
       gradientTransform="matrix(1481.42,0,0,1627.15,1044.91,1921.44)"><stop
         offset="0"
         style="stop-color:#7209b7;stop-opacity:1"
         id="stop9293" /><stop
         offset="1"
         style="stop-color:#6320ee;stop-opacity:1"
         id="stop9295" /></linearGradient><linearGradient
       id="_Linear5"
       x1="0"
       y1="0"
       x2="1"
       y2="0"
       gradientUnits="userSpaceOnUse"
       gradientTransform="matrix(1183.4,0,0,1296,1342.92,2087.02)"><stop
         offset="0"
         style="stop-color:#5d16ce;stop-opacity:1"
         id="stop9298" /><stop
         offset="1"
         style="stop-color:#6320ee;stop-opacity:1"
         id="stop9300" /></linearGradient></defs></svg>
