<?xml version="1.0" encoding="UTF-8" standalone="no"?><!DOCTYPE svg PUBLIC "-//W3C//DTD SVG 1.1//EN" "http://www.w3.org/Graphics/SVG/1.1/DTD/svg11.dtd"><svg width="100%" height="100%" viewBox="0 0 446 128" version="1.1" xmlns="http://www.w3.org/2000/svg" xmlns:xlink="http://www.w3.org/1999/xlink" xml:space="preserve" xmlns:serif="http://www.serif.com/" style="fill-rule:evenodd;clip-rule:evenodd;stroke-linejoin:round;stroke-miterlimit:2;"><rect id="librelane-logo-full" x="0" y="0" width="446" height="128" style="fill:none;"/><clipPath id="_clip1"><rect x="0" y="0" width="446" height="128"/></clipPath><g clip-path="url(#_clip1)"><g><g><g><path d="M120.94,59.553l11.773,-0l0,40.098l20.799,0l-0,9.777l-32.583,-0l0.011,-49.875Z" style="fill:#6320ee;fill-rule:nonzero;"/><path d="M169.462,73.763l-0,35.665l-11.194,-0l0,-35.665l11.194,0Zm0.038,-14.199l-0,10.192l-11.28,-0l-0,-10.192l11.28,-0Z" style="fill:#6320ee;fill-rule:nonzero;"/><path d="M196.094,110.117c-1.6,0 -3.009,-0.206 -4.229,-0.619c-1.22,-0.413 -2.276,-0.984 -3.169,-1.713c-0.892,-0.729 -1.639,-1.579 -2.241,-2.548c-0.602,-0.969 -1.088,-2.009 -1.459,-3.122l-1.371,7.313l-8.391,-0l-0,-51.255l11.781,0l-0,20.038c0.491,-0.841 1.098,-1.58 1.823,-2.216c0.725,-0.636 1.539,-1.169 2.442,-1.599c0.903,-0.43 1.862,-0.758 2.877,-0.984c1.015,-0.226 2.068,-0.338 3.159,-0.338c4.406,-0 7.847,1.617 10.321,4.853c2.475,3.235 3.712,7.718 3.712,13.449c-0,3.783 -0.584,7.076 -1.752,9.88c-1.168,2.803 -2.885,4.981 -5.151,6.533c-2.266,1.552 -5.05,2.328 -8.352,2.328Zm-2.688,-8.314c1.844,-0 3.395,-0.788 4.652,-2.365c1.256,-1.576 1.885,-4.287 1.885,-8.132c-0,-3.513 -0.612,-6.032 -1.837,-7.559c-1.224,-1.527 -2.802,-2.29 -4.733,-2.29c-1.351,0 -2.5,0.345 -3.448,1.036c-0.948,0.691 -1.668,1.764 -2.16,3.219c-0.493,1.456 -0.743,3.32 -0.75,5.594c-0,3.866 0.553,6.582 1.659,8.148c1.106,1.566 2.683,2.349 4.732,2.349Z" style="fill:#6320ee;fill-rule:nonzero;"/><path d="M214.863,109.428l-0,-35.665l11.33,0l0,9.154c0.563,-1.862 1.363,-3.535 2.4,-5.018c1.038,-1.483 2.327,-2.658 3.867,-3.525c1.54,-0.867 3.329,-1.3 5.367,-1.3c0.248,-0 0.466,0.008 0.655,0.024c0.189,0.016 0.317,0.044 0.386,0.083l-0,11.141c-0.134,-0.055 -0.287,-0.09 -0.46,-0.104c-0.172,-0.015 -0.346,-0.032 -0.522,-0.051c-2.248,-0.213 -4.102,-0.175 -5.563,0.115c-1.461,0.29 -2.611,0.77 -3.45,1.441c-0.839,0.672 -1.427,1.469 -1.764,2.394c-0.337,0.925 -0.505,1.924 -0.505,2.996l-0,18.315l-11.741,-0Z" style="fill:#6320ee;fill-rule:nonzero;"/><path d="M251.736,94.288c-0.019,1.623 0.235,2.994 0.763,4.112c0.528,1.117 1.276,1.962 2.244,2.534c0.967,0.572 2.094,0.858 3.379,0.858c1.471,0 2.774,-0.3 3.911,-0.9c1.138,-0.6 1.971,-1.665 2.502,-3.196l10.469,0c-0.382,2.591 -1.409,4.814 -3.08,6.672c-1.67,1.857 -3.698,3.279 -6.084,4.267c-2.386,0.988 -4.861,1.482 -7.427,1.482c-3.612,0 -6.792,-0.745 -9.541,-2.237c-2.748,-1.492 -4.887,-3.594 -6.417,-6.308c-1.529,-2.713 -2.294,-5.896 -2.294,-9.55c-0,-3.485 0.701,-6.661 2.102,-9.526c1.401,-2.866 3.422,-5.152 6.063,-6.86c2.641,-1.708 5.826,-2.562 9.557,-2.562c3.76,-0 6.907,0.785 9.438,2.355c2.532,1.57 4.437,3.734 5.715,6.492c1.277,2.758 1.916,5.906 1.916,9.446l0,2.921l-23.216,0Zm-0.047,-6.754l12.368,0c0,-1.17 -0.231,-2.244 -0.694,-3.223c-0.463,-0.978 -1.151,-1.757 -2.064,-2.335c-0.913,-0.579 -2.056,-0.868 -3.427,-0.868c-1.232,-0 -2.311,0.303 -3.237,0.908c-0.926,0.605 -1.649,1.4 -2.17,2.384c-0.521,0.984 -0.78,2.029 -0.776,3.134Z" style="fill:#6320ee;fill-rule:nonzero;"/><path d="M281.412,59.553l11.773,-0l0,40.098l20.799,0l-0,9.777l-32.583,-0l0.011,-49.875Z" style="fill:#6320ee;fill-rule:nonzero;"/><path d="M328.855,110.117c-2.249,0 -4.297,-0.43 -6.146,-1.291c-1.849,-0.862 -3.317,-2.119 -4.403,-3.773c-1.087,-1.655 -1.63,-3.678 -1.63,-6.07c0,-3.884 1.497,-6.872 4.492,-8.962c2.994,-2.09 7.688,-3.151 14.083,-3.183l3.616,-0.043l0,-1.82c0,-1.397 -0.397,-2.449 -1.191,-3.156c-0.794,-0.707 -2.035,-1.041 -3.722,-1.002c-1.189,0.019 -2.389,0.3 -3.601,0.841c-1.211,0.542 -2.081,1.53 -2.607,2.964l-9.62,-0c0.138,-2.687 0.933,-4.882 2.386,-6.586c1.452,-1.704 3.393,-2.957 5.822,-3.759c2.429,-0.802 5.151,-1.203 8.166,-1.203c3.891,-0 6.975,0.463 9.252,1.389c2.277,0.927 3.906,2.228 4.886,3.905c0.98,1.676 1.47,3.642 1.47,5.898l0,25.162l-9.759,-0l-1.005,-5.905c-1.134,2.501 -2.549,4.225 -4.245,5.173c-1.697,0.948 -3.778,1.421 -6.244,1.421Zm4.057,-7.557c0.777,-0 1.521,-0.14 2.234,-0.418c0.712,-0.279 1.343,-0.66 1.891,-1.145c0.549,-0.485 0.986,-1.031 1.312,-1.638c0.326,-0.606 0.499,-1.245 0.518,-1.917l0,-4.872l-2.887,0.021c-1.195,0.011 -2.429,0.179 -3.703,0.502c-1.275,0.324 -2.349,0.859 -3.224,1.605c-0.875,0.746 -1.313,1.776 -1.313,3.089c0,1.492 0.513,2.66 1.538,3.505c1.025,0.845 2.236,1.268 3.634,1.268Z" style="fill:#6320ee;fill-rule:nonzero;"/><path d="M355.752,109.428l-0,-35.665l11.592,0l0,4.992c0.524,-0.816 1.205,-1.625 2.042,-2.427c0.838,-0.801 1.904,-1.467 3.2,-1.995c1.295,-0.529 2.878,-0.794 4.748,-0.794c2.132,0 4.146,0.413 6.043,1.24c1.897,0.826 3.441,2.139 4.632,3.938c1.192,1.8 1.787,4.159 1.787,7.077l0,23.634l-11.77,-0l-0,-22.091c-0,-1.557 -0.506,-2.732 -1.518,-3.526c-1.012,-0.793 -2.182,-1.19 -3.51,-1.19c-0.871,0 -1.732,0.167 -2.585,0.5c-0.852,0.334 -1.552,0.831 -2.099,1.492c-0.547,0.66 -0.821,1.479 -0.821,2.454l-0,22.361l-11.741,-0Z" style="fill:#6320ee;fill-rule:nonzero;"/><path d="M404.691,94.288c-0.019,1.623 0.235,2.994 0.763,4.112c0.528,1.117 1.276,1.962 2.244,2.534c0.967,0.572 2.094,0.858 3.379,0.858c1.471,0 2.774,-0.3 3.911,-0.9c1.137,-0.6 1.971,-1.665 2.502,-3.196l10.469,0c-0.383,2.591 -1.409,4.814 -3.08,6.672c-1.67,1.857 -3.699,3.279 -6.084,4.267c-2.386,0.988 -4.861,1.482 -7.427,1.482c-3.612,0 -6.792,-0.745 -9.541,-2.237c-2.748,-1.492 -4.887,-3.594 -6.417,-6.308c-1.529,-2.713 -2.294,-5.896 -2.294,-9.55c-0,-3.485 0.7,-6.661 2.102,-9.526c1.401,-2.866 3.422,-5.152 6.063,-6.86c2.64,-1.708 5.826,-2.562 9.557,-2.562c3.76,-0 6.906,0.785 9.438,2.355c2.532,1.57 4.437,3.734 5.715,6.492c1.277,2.758 1.916,5.906 1.916,9.446l0,2.921l-23.216,0Zm-0.047,-6.754l12.368,0c0,-1.17 -0.231,-2.244 -0.694,-3.223c-0.463,-0.978 -1.151,-1.757 -2.064,-2.335c-0.914,-0.579 -2.056,-0.868 -3.427,-0.868c-1.232,-0 -2.311,0.303 -3.237,0.908c-0.926,0.605 -1.649,1.4 -2.17,2.384c-0.521,0.984 -0.78,2.029 -0.776,3.134Z" style="fill:#6320ee;fill-rule:nonzero;"/></g><g><path d="M29.987,95.664c-7.71,-8.471 -12.018,-20.755 -12.018,-32.195l0,-45.586l7.98,-0l-0,43.499c-0,10.065 3.661,19.269 9.717,26.338l-5.679,7.944Zm6.805,-6.684c1.079,1.158 2.226,2.253 3.434,3.277l-5.56,7.769c-1.217,-0.967 -2.376,-1.999 -3.468,-3.092l5.594,-7.954Zm4.715,4.319c1.059,0.826 2.16,1.6 3.299,2.317l-5.477,7.639c-1.13,-0.68 -2.227,-1.407 -3.285,-2.18l5.463,-7.776Zm5.005,3.333c1.038,0.585 2.105,1.124 3.197,1.615l-5.448,7.586c-1.059,-0.476 -2.1,-0.991 -3.118,-1.542l5.369,-7.659Zm5.386,2.522c0.938,0.356 1.892,0.677 2.862,0.963l-5.495,7.643c-0.914,-0.296 -1.82,-0.618 -2.715,-0.967l5.348,-7.639Zm5.595,1.664c0.877,0.192 1.765,0.355 2.662,0.488l-5.636,7.837c-0.821,-0.168 -1.638,-0.357 -2.45,-0.568l5.424,-7.757Zm5.643,0.817c0.792,0.057 1.59,0.091 2.394,0.102l-5.889,8.173c-0.705,-0.066 -1.411,-0.149 -2.116,-0.248l5.611,-8.027Zm6.012,0.105l2.266,0l-6.026,8.364l0.019,0.013l-1.425,0c-0.226,0 -0.451,-0.001 -0.676,-0.005l5.842,-8.372Zm5.887,0l2.002,0l-5.985,8.377l-1.863,0l5.846,-8.377Zm6.158,0l1.731,0l-5.986,8.377l-1.64,0l5.895,-8.377Zm5.887,0l1.846,0l-5.989,8.377l-1.752,0l5.895,-8.377Zm6.424,0l1.569,0l-5.99,8.377l-1.47,0l5.891,-8.377Zm6.155,0l1.532,0l-5.994,8.377l-1.429,0l5.891,-8.377Zm6.543,0l1.499,0l-5.995,8.377l-1.39,0l5.886,-8.377Zm2.835,5.259l0.007,3.118l-2.198,0l2.191,-3.118Z" style="fill:#6320ee;"/><path d="M38.957,83.116c-5.206,-5.691 -7.23,-14.078 -8.513,-21.734c-1.7,-10.145 -1.849,-38.628 -1.862,-42.948l-0.001,-0.551l8.24,-0l-0,38.974c-0,7.271 2.32,14.302 6.547,20.089l-4.411,6.17Zm5.395,-4.887c0.732,0.908 1.514,1.781 2.342,2.615c0.329,0.331 0.664,0.654 1.005,0.97l-3.908,5.461c-1.357,-0.962 -2.599,-1.966 -3.691,-3l4.252,-6.046Zm4.505,4.609c1.063,0.898 2.177,1.726 3.333,2.481l-3.558,4.961c-1.227,-0.672 -2.407,-1.376 -3.523,-2.108l3.748,-5.334Zm4.909,3.449c1.078,0.621 2.188,1.182 3.326,1.68l-3.433,4.78c-1.13,-0.496 -2.241,-1.02 -3.323,-1.569l3.43,-4.891Zm5.388,2.502c1.007,0.363 2.032,0.679 3.071,0.944l-3.581,4.981c-0.964,-0.339 -1.926,-0.701 -2.88,-1.083l3.39,-4.842Zm5.698,1.506c0.976,0.167 1.962,0.292 2.954,0.373l-4.05,5.631c-0.855,-0.229 -1.717,-0.478 -2.581,-0.746l3.677,-5.258Zm5.872,0.484l2.7,0.001l-4.755,6.6c-0.791,-0.133 -1.545,-0.277 -2.257,-0.432l4.312,-6.169Zm6.07,0.002l2.515,0.001l-5.264,7.306c-0.742,-0.076 -1.469,-0.158 -2.177,-0.246l4.926,-7.061Zm5.886,0.002l2.185,0.001l-5.533,7.745c-0.659,-0.044 -1.312,-0.092 -1.957,-0.142l5.305,-7.604Zm6.222,0.003l1.848,0l-5.754,8.054c-0.569,-0.025 -1.138,-0.052 -1.706,-0.08l5.612,-7.974Zm5.885,0.002l1.97,0l-5.91,8.265c-0.608,-0.018 -1.22,-0.037 -1.835,-0.058l5.775,-8.207Zm6.417,0.002l1.697,0l-6.02,8.421c-0.517,-0.012 -1.041,-0.025 -1.572,-0.038l5.895,-8.383Zm2.075,5.802l0,2.191c-0.135,0.126 -0.188,0.159 -0.206,0.201c-0.034,0.085 -0.027,0.117 -0.151,0.242c-0.048,0.049 -0.073,0.095 -0.088,0.136c-0.476,-0.015 -0.968,-0.028 -1.473,-0.042l1.918,-2.728Z" style="fill:url(#_Linear2);"/><path d="M46.655,72.348c-2.803,-4.589 -4.67,-10.216 -5.685,-15.491c-1.902,-9.878 -1.714,-38.974 -1.714,-38.974l8.337,-0l0.1,35.842c-0,4.585 1.175,8.895 3.24,12.639l-4.278,5.984Zm5.083,-4.621c0.919,1.45 1.975,2.802 3.151,4.039l-4.132,5.775c-0.134,-0.128 -0.266,-0.257 -0.395,-0.387c-1.023,-1.029 -1.965,-2.19 -2.828,-3.449l4.204,-5.978Zm4.179,5.061c1.039,0.978 2.158,1.87 3.346,2.667l-3.947,5.504c-1.228,-0.737 -2.383,-1.542 -3.438,-2.421l4.039,-5.75Zm4.805,3.577c1.115,0.644 2.282,1.208 3.493,1.683l-3.889,5.415c-1.182,-0.493 -2.336,-1.032 -3.444,-1.621l3.84,-5.477Zm5.473,2.367c1.099,0.33 2.229,0.589 3.385,0.771l-4.154,5.778c-1.037,-0.314 -2.072,-0.658 -3.093,-1.032l3.862,-5.517Zm6.01,1.048c0.47,0.026 0.943,0.039 1.419,0.039l1.985,-0l-4.907,6.822c-0.057,-0.012 -0.114,-0.024 -0.17,-0.037c-0.877,-0.192 -1.764,-0.403 -2.655,-0.635l4.328,-6.189Zm6.181,0.039l2.935,-0l-5.48,7.606c-0.886,-0.098 -1.737,-0.206 -2.545,-0.325l5.09,-7.281Zm6.058,-0l2.764,-0l-5.821,8.078c-0.83,-0.054 -1.651,-0.114 -2.455,-0.179l5.512,-7.899Zm5.887,-0l2.368,-0l-5.973,8.36c-0.719,-0.031 -1.44,-0.064 -2.159,-0.1l5.764,-8.26Zm6.288,-0l1.747,-0l0,0.307l-5.9,8.258c-0.602,-0.018 -1.214,-0.038 -1.833,-0.058l5.986,-8.507Zm1.747,5.883l0,2.836l-0.02,0.027c-0.622,-0.021 -1.275,-0.042 -1.951,-0.062l1.971,-2.801Z" style="fill:url(#_Linear3);"/><path d="M53.941,62.157c-1.228,-2.656 -1.981,-5.599 -2.445,-8.432c-1.351,-8.24 -1.597,-35.842 -1.597,-35.842l8.16,-0l0.679,34.822c-0,0.842 0.064,1.669 0.189,2.476l-4.986,6.976Zm5.367,-5.193c0.516,1.882 1.366,3.625 2.481,5.16l-3.983,5.566c-0.129,-0.123 -0.254,-0.246 -0.377,-0.369c-1.093,-1.1 -2.007,-2.37 -2.77,-3.747l4.649,-6.61Zm3.341,6.243c0.965,1.113 2.082,2.091 3.317,2.9l-3.633,5.067c-1.274,-0.815 -2.453,-1.674 -3.489,-2.552l3.805,-5.415Zm4.699,3.708c1.204,0.625 2.498,1.1 3.857,1.399l-3.982,5.545c-1.192,-0.559 -2.357,-1.17 -3.47,-1.818l3.595,-5.126Zm5.921,1.712c0.444,0.038 0.894,0.057 1.348,0.057l2.741,-0l-5.138,7.146c-1.055,-0.337 -2.121,-0.73 -3.177,-1.167l4.226,-6.036Zm6.696,0.057l3.653,-0l-5.983,8.319c-1.142,-0.144 -2.196,-0.318 -3.118,-0.529l5.448,-7.79Zm6.204,-0l3.174,-0l-6.324,8.778c-0.968,-0.054 -1.923,-0.119 -2.848,-0.197l5.998,-8.581Zm6.045,-0l1.976,-0l-0,1.443l-5.44,7.551c-0.902,-0.023 -1.825,-0.049 -2.755,-0.083l6.219,-8.911Zm1.976,5.604l-0,3.445l-0.041,0.057c-0.739,-0.016 -1.534,-0.031 -2.369,-0.047l2.41,-3.455Z" style="fill:url(#_Linear4);"/><path d="M62.001,50.882c-0.845,-9.053 -1.813,-32.999 -1.813,-32.999l8.143,-0l0,24.144l-6.33,8.855Zm6.33,-6.749l0,3.564c0,1.461 0.299,2.852 0.837,4.115l-4.885,6.827c-1.146,-1.692 -1.801,-3.788 -2.071,-5.805l6.119,-8.701Zm1.46,8.907c0.792,1.334 1.871,2.476 3.151,3.338l-4.366,6.089c-1.268,-0.807 -2.392,-1.687 -3.234,-2.535c-0.077,-0.077 -0.152,-0.156 -0.226,-0.237l4.675,-6.655Zm4.429,4.072c1.304,0.63 2.76,0.994 4.296,1.021l-4.87,6.782c-1.257,-0.417 -2.535,-0.994 -3.735,-1.656l4.309,-6.147Zm6.394,1.023l4.328,-0l-5.605,7.795c-1.465,-0.152 -2.789,-0.325 -3.814,-0.523l5.091,-7.272Zm6.727,-0l3.343,-0l0,0.723l-5.442,7.567c-1.159,-0.082 -2.35,-0.172 -3.509,-0.27l5.608,-8.02Zm3.343,4.09l0,4.585c-0.886,-0.069 -1.928,-0.141 -3.052,-0.218l3.052,-4.367Z" style="fill:url(#_Linear5);"/><path d="M103.279,98.783l0,0.592c-0.147,-0.004 -0.295,-0.009 -0.445,-0.013c0.015,-0.041 0.04,-0.087 0.088,-0.136c0.124,-0.125 0.117,-0.157 0.151,-0.242c0.018,-0.042 0.071,-0.075 0.206,-0.201Z" style="fill:#6320ee;"/></g></g><path d="M0.311,72.941l-0.311,-17.813l6.633,-0l0.043,2.463c0.246,-0.379 0.561,-0.764 0.944,-1.154c0.384,-0.391 0.884,-0.718 1.499,-0.982c0.616,-0.264 1.389,-0.396 2.319,-0.396c1.045,-0 2.045,0.201 3,0.603c0.954,0.402 1.741,1.045 2.359,1.929c0.618,0.885 0.94,2.05 0.966,3.497l0.206,11.853l-6.718,0l-0.191,-10.939c-0.011,-0.586 -0.237,-1.034 -0.678,-1.344c-0.442,-0.31 -0.916,-0.465 -1.421,-0.465c-0.322,-0 -0.651,0.069 -0.987,0.206c-0.337,0.138 -0.614,0.342 -0.834,0.612c-0.219,0.27 -0.325,0.6 -0.318,0.991l0.191,10.939l-6.702,0Zm427.959,0l-0.311,-17.813l6.632,-0l0.043,2.463c0.247,-0.379 0.561,-0.764 0.945,-1.154c0.384,-0.391 0.883,-0.718 1.499,-0.982c0.616,-0.264 1.389,-0.396 2.319,-0.396c1.045,-0 2.045,0.201 2.999,0.603c0.955,0.402 1.741,1.045 2.36,1.929c0.618,0.885 0.94,2.05 0.965,3.497l0.207,11.853l-6.719,0l-0.191,-10.939c-0.01,-0.586 -0.236,-1.034 -0.678,-1.344c-0.442,-0.31 -0.915,-0.465 -1.42,-0.465c-0.322,-0 -0.651,0.069 -0.987,0.206c-0.337,0.138 -0.615,0.342 -0.834,0.612c-0.219,0.27 -0.325,0.6 -0.319,0.991l0.191,10.939l-6.701,0Zm-213.98,-55.058l-0.311,-17.814l6.633,-0l0.043,2.463c0.246,-0.379 0.561,-0.763 0.945,-1.154c0.383,-0.39 0.883,-0.718 1.499,-0.982c0.615,-0.264 1.388,-0.396 2.318,-0.396c1.046,0 2.045,0.201 3,0.603c0.955,0.402 1.741,1.045 2.359,1.929c0.619,0.885 0.941,2.051 0.966,3.498l0.207,11.853l-6.719,-0l-0.191,-10.94c-0.01,-0.586 -0.236,-1.034 -0.678,-1.344c-0.442,-0.31 -0.916,-0.465 -1.421,-0.465c-0.321,-0 -0.65,0.069 -0.987,0.207c-0.336,0.137 -0.614,0.341 -0.833,0.611c-0.22,0.27 -0.326,0.6 -0.319,0.991l0.191,10.94l-6.702,-0Zm0,110.117l-0.311,-17.814l6.633,0l0.043,2.464c0.246,-0.379 0.561,-0.764 0.945,-1.154c0.383,-0.391 0.883,-0.718 1.499,-0.982c0.615,-0.264 1.388,-0.397 2.318,-0.397c1.046,0 2.045,0.201 3,0.603c0.955,0.402 1.741,1.046 2.359,1.93c0.619,0.884 0.941,2.05 0.966,3.497l0.207,11.853l-6.719,0l-0.191,-10.94c-0.01,-0.585 -0.236,-1.033 -0.678,-1.343c-0.442,-0.311 -0.916,-0.466 -1.421,-0.466c-0.321,0 -0.65,0.069 -0.987,0.207c-0.336,0.138 -0.614,0.342 -0.833,0.612c-0.22,0.27 -0.326,0.6 -0.319,0.99l0.191,10.94l-6.702,0Z" style="fill:none;"/></g></g><defs><linearGradient id="_Linear2" x1="0" y1="0" x2="1" y2="0" gradientUnits="userSpaceOnUse" gradientTransform="matrix(69.8338,0,0,76.1726,33.4454,58.6221)"><stop offset="0" style="stop-color:#5d16ce;stop-opacity:1"/><stop offset="1" style="stop-color:#6320ee;stop-opacity:1"/></linearGradient><linearGradient id="_Linear3" x1="0" y1="0" x2="1" y2="0" gradientUnits="userSpaceOnUse" gradientTransform="matrix(53.717,0,0,63.907,44.6492,53.2243)"><stop offset="0" style="stop-color:#7209b7;stop-opacity:1"/><stop offset="1" style="stop-color:#6320ee;stop-opacity:1"/></linearGradient><linearGradient id="_Linear4" x1="0" y1="0" x2="1" y2="0" gradientUnits="userSpaceOnUse" gradientTransform="matrix(39.5048,0,0,52.7521,54.6849,47.8368)"><stop offset="0" style="stop-color:#b5179e;stop-opacity:1"/><stop offset="1" style="stop-color:#6320ee;stop-opacity:1"/></linearGradient><linearGradient id="_Linear5" x1="0" y1="0" x2="1" y2="0" gradientUnits="userSpaceOnUse" gradientTransform="matrix(24.7543,0,0,39.5286,65.9299,42.3463)"><stop offset="0" style="stop-color:#f72585;stop-opacity:1"/><stop offset="1" style="stop-color:#6320ee;stop-opacity:1"/></linearGradient></defs></svg>