<?xml version="1.0" encoding="UTF-8" standalone="no"?><!DOCTYPE svg PUBLIC "-//W3C//DTD SVG 1.1//EN" "http://www.w3.org/Graphics/SVG/1.1/DTD/svg11.dtd"><svg width="100%" height="100%" viewBox="0 0 127 128" version="1.1" xmlns="http://www.w3.org/2000/svg" xmlns:xlink="http://www.w3.org/1999/xlink" xml:space="preserve" xmlns:serif="http://www.serif.com/" style="fill-rule:evenodd;clip-rule:evenodd;stroke-linejoin:round;stroke-miterlimit:2;"><g><path d="M16.976,107.941c-10.7,-11.755 -16.677,-28.802 -16.677,-44.678l-0,-63.263l11.073,0l0,60.366c0,13.968 5.081,26.742 13.485,36.551l-7.881,11.024Zm9.444,-9.275c1.498,1.608 3.089,3.127 4.765,4.548l-7.715,10.782c-1.689,-1.343 -3.298,-2.774 -4.813,-4.292l7.763,-11.038Zm6.543,5.994c1.469,1.146 2.997,2.22 4.579,3.216l-7.602,10.6c-1.567,-0.943 -3.089,-1.952 -4.559,-3.025l7.582,-10.791Zm6.946,4.626c1.441,0.811 2.921,1.559 4.437,2.24l-7.561,10.529c-1.47,-0.662 -2.914,-1.376 -4.328,-2.141l7.452,-10.628Zm7.475,3.499c1.301,0.494 2.625,0.94 3.971,1.337l-7.625,10.606c-1.269,-0.41 -2.526,-0.857 -3.768,-1.341l7.422,-10.602Zm7.764,2.31c1.217,0.266 2.449,0.492 3.694,0.677l-7.822,10.876c-1.138,-0.233 -2.272,-0.496 -3.4,-0.788l7.528,-10.765Zm7.832,1.133c1.098,0.08 2.206,0.127 3.321,0.141l-8.172,11.344c-0.979,-0.093 -1.958,-0.208 -2.936,-0.345l7.787,-11.14Zm8.342,0.146l3.145,0l-8.363,11.607l0.027,0.019l-1.979,-0c-0.312,-0 -0.625,-0.002 -0.938,-0.007l8.108,-11.619Zm8.169,0l2.78,0l-8.306,11.626l-2.586,-0l8.112,-11.626Zm8.547,0l2.402,0l-8.306,11.626l-2.277,-0l8.181,-11.626Zm8.17,0l2.562,0l-8.313,11.626l-2.43,-0l8.181,-11.626Zm8.914,0l2.178,0l-8.312,11.626l-2.04,-0l8.174,-11.626Zm8.543,0l2.126,0l-8.319,11.626l-1.983,-0l8.176,-11.626Zm9.079,0l2.08,0l-8.319,11.626l-1.929,-0l8.168,-11.626Zm3.934,7.299l0.01,4.327l-3.05,-0l3.04,-4.327Z" style="fill:#6320ee;"/><path d="M29.425,90.528c-7.226,-7.897 -10.035,-19.536 -11.815,-30.162c-2.359,-14.078 -2.566,-53.606 -2.584,-59.6l-0.002,-0.766l11.436,0l-0,54.088c-0,10.09 3.219,19.846 9.086,27.878l-6.121,8.562Zm7.487,-6.782c1.016,1.26 2.1,2.472 3.25,3.629c0.457,0.459 0.921,0.908 1.394,1.346l-5.423,7.578c-1.883,-1.334 -3.607,-2.727 -5.122,-4.162l5.901,-8.391Zm6.251,6.397c1.475,1.246 3.021,2.395 4.626,3.443l-4.938,6.885c-1.703,-0.933 -3.34,-1.911 -4.889,-2.926l5.201,-7.402Zm6.812,4.785c1.497,0.863 3.038,1.642 4.616,2.332l-4.764,6.634c-1.567,-0.688 -3.109,-1.415 -4.611,-2.177l4.759,-6.789Zm7.478,3.473c1.398,0.504 2.82,0.942 4.262,1.311l-4.97,6.912c-1.338,-0.471 -2.673,-0.973 -3.996,-1.504l4.704,-6.719Zm7.908,2.09c1.354,0.232 2.722,0.406 4.099,0.518l-5.62,7.814c-1.187,-0.317 -2.383,-0.663 -3.582,-1.035l5.103,-7.297Zm8.149,0.672l3.746,0.002l-6.599,9.159c-1.097,-0.185 -2.143,-0.384 -3.131,-0.599l5.984,-8.562Zm8.424,0.003l3.489,0.001l-7.304,10.138c-1.031,-0.105 -2.04,-0.219 -3.023,-0.34l6.838,-9.799Zm8.167,0.003l3.033,0.001l-7.679,10.748c-0.914,-0.062 -1.82,-0.127 -2.716,-0.198l7.362,-10.551Zm8.635,0.003l2.564,0.001l-7.985,11.177c-0.789,-0.035 -1.579,-0.073 -2.366,-0.112l7.787,-11.066Zm8.167,0.003l2.734,0.001l-8.201,11.47c-0.844,-0.026 -1.694,-0.052 -2.548,-0.081l8.015,-11.39Zm8.905,0.003l2.356,0.001l-8.355,11.685c-0.717,-0.017 -1.445,-0.034 -2.182,-0.052l8.181,-11.634Zm2.88,8.052l0,3.041c-0.187,0.175 -0.261,0.22 -0.285,0.279c-0.048,0.117 -0.038,0.162 -0.21,0.335c-0.068,0.068 -0.102,0.132 -0.122,0.188c-0.661,-0.019 -1.344,-0.038 -2.045,-0.057l2.662,-3.786Z" style="fill:url(#_Linear1);"/><path d="M40.108,75.585c-3.891,-6.368 -6.481,-14.177 -7.89,-21.497c-2.639,-13.709 -2.379,-54.088 -2.379,-54.088l11.571,0l0.138,49.74c-0,6.364 1.631,12.344 4.496,17.541l-5.936,8.304Zm7.054,-6.413c1.274,2.012 2.74,3.889 4.373,5.605l-5.735,8.014c-0.186,-0.177 -0.369,-0.356 -0.549,-0.537c-1.419,-1.428 -2.726,-3.039 -3.924,-4.785l5.835,-8.297Zm5.799,7.024c1.442,1.357 2.995,2.595 4.643,3.701l-5.477,7.638c-1.704,-1.023 -3.307,-2.14 -4.772,-3.36l5.606,-7.979Zm6.668,4.963c1.547,0.895 3.167,1.677 4.847,2.336l-5.397,7.515c-1.64,-0.684 -3.242,-1.433 -4.779,-2.249l5.329,-7.602Zm7.595,3.285c1.526,0.459 3.094,0.818 4.697,1.07l-5.764,8.019c-1.44,-0.436 -2.875,-0.913 -4.293,-1.433l5.36,-7.656Zm8.341,1.455c0.652,0.035 1.308,0.053 1.969,0.053l2.755,0l-6.809,9.469c-0.08,-0.017 -0.159,-0.034 -0.238,-0.052c-1.216,-0.266 -2.447,-0.559 -3.684,-0.881l6.007,-8.589Zm8.578,0.053l4.073,0l-7.605,10.556c-1.23,-0.136 -2.412,-0.286 -3.532,-0.451l7.064,-10.105Zm8.407,0l3.835,0l-8.077,11.211c-1.153,-0.075 -2.292,-0.157 -3.408,-0.248l7.65,-10.963Zm8.169,0l3.287,0l-8.289,11.602c-0.998,-0.042 -1.999,-0.088 -2.997,-0.138l7.999,-11.464Zm8.727,0l2.424,0l0,0.427l-8.188,11.461c-0.836,-0.026 -1.685,-0.053 -2.544,-0.082l8.308,-11.806Zm2.424,8.164l0,3.936l-0.028,0.039c-0.864,-0.03 -1.769,-0.058 -2.707,-0.087l2.735,-3.888Z" style="fill:url(#_Linear2);"/><path d="M50.218,61.442c-1.704,-3.685 -2.748,-7.77 -3.392,-11.702c-1.875,-11.434 -2.216,-49.74 -2.216,-49.74l11.324,0l0.941,48.325c0,1.169 0.09,2.317 0.263,3.437l-6.92,9.68Zm7.449,-7.207c0.716,2.612 1.895,5.031 3.442,7.162l-5.527,7.724c-0.178,-0.17 -0.353,-0.341 -0.522,-0.512c-1.518,-1.527 -2.786,-3.29 -3.845,-5.2l6.452,-9.174Zm4.636,8.664c1.34,1.545 2.889,2.902 4.604,4.025l-5.043,7.032c-1.767,-1.131 -3.403,-2.323 -4.841,-3.541l5.28,-7.516Zm6.521,5.146c1.671,0.868 3.467,1.526 5.353,1.942l-5.526,7.695c-1.654,-0.776 -3.272,-1.623 -4.815,-2.523l4.988,-7.114Zm8.217,2.376c0.617,0.052 1.241,0.079 1.871,0.079l3.804,0l-7.13,9.917c-1.465,-0.468 -2.943,-1.012 -4.409,-1.62l5.864,-8.376Zm9.292,0.079l5.07,0l-8.303,11.545c-1.584,-0.2 -3.047,-0.441 -4.326,-0.735l7.559,-10.81Zm8.611,0l4.405,0l-8.777,12.181c-1.343,-0.074 -2.669,-0.163 -3.953,-0.272l8.325,-11.909Zm8.388,0l2.742,0l0,2.003l-7.549,10.478c-1.252,-0.031 -2.533,-0.067 -3.823,-0.114l8.63,-12.367Zm2.742,7.778l0,4.78l-0.057,0.079c-1.024,-0.022 -2.128,-0.043 -3.288,-0.066l3.345,-4.793Z" style="fill:url(#_Linear3);"/><path d="M61.404,45.795c-1.173,-12.564 -2.516,-45.795 -2.516,-45.795l11.301,0l-0,33.506l-8.785,12.289Zm8.785,-9.365l-0,4.946c-0,2.028 0.414,3.958 1.161,5.71l-6.779,9.474c-1.591,-2.348 -2.499,-5.256 -2.874,-8.056l8.492,-12.074Zm2.026,12.361c1.099,1.851 2.596,3.435 4.373,4.632l-6.059,8.449c-1.76,-1.12 -3.32,-2.341 -4.488,-3.517c-0.107,-0.107 -0.212,-0.217 -0.315,-0.329l6.489,-9.235Zm6.147,5.651c1.809,0.874 3.829,1.378 5.961,1.416l-6.758,9.411c-1.746,-0.578 -3.518,-1.378 -5.184,-2.298l5.981,-8.529Zm8.872,1.419l6.006,-0l-7.777,10.818c-2.034,-0.212 -3.872,-0.451 -5.294,-0.726l7.065,-10.092Zm9.336,-0l4.639,-0l0,1.004l-7.552,10.501c-1.608,-0.115 -3.261,-0.239 -4.869,-0.376l7.782,-11.129Zm4.639,5.676l0,6.363c-1.23,-0.096 -2.675,-0.196 -4.236,-0.303l4.236,-6.06Z" style="fill:url(#_Linear4);"/><path d="M118.688,112.271l0,0.821c-0.203,-0.006 -0.409,-0.012 -0.617,-0.019c0.02,-0.056 0.054,-0.12 0.122,-0.188c0.172,-0.173 0.162,-0.218 0.21,-0.335c0.024,-0.059 0.098,-0.104 0.285,-0.279Z" style="fill:#6320ee;"/></g><defs><linearGradient id="_Linear1" x1="0" y1="0" x2="1" y2="0" gradientUnits="userSpaceOnUse" gradientTransform="matrix(96.9125,0,0,105.709,21.7757,56.5367)"><stop offset="0" style="stop-color:#5d16ce;stop-opacity:1"/><stop offset="1" style="stop-color:#6320ee;stop-opacity:1"/></linearGradient><linearGradient id="_Linear2" x1="0" y1="0" x2="1" y2="0" gradientUnits="userSpaceOnUse" gradientTransform="matrix(74.5463,0,0,88.6876,37.3238,49.0459)"><stop offset="0" style="stop-color:#7209b7;stop-opacity:1"/><stop offset="1" style="stop-color:#6320ee;stop-opacity:1"/></linearGradient><linearGradient id="_Linear3" x1="0" y1="0" x2="1" y2="0" gradientUnits="userSpaceOnUse" gradientTransform="matrix(54.8232,0,0,73.2073,51.251,41.5694)"><stop offset="0" style="stop-color:#b5179e;stop-opacity:1"/><stop offset="1" style="stop-color:#6320ee;stop-opacity:1"/></linearGradient><linearGradient id="_Linear4" x1="0" y1="0" x2="1" y2="0" gradientUnits="userSpaceOnUse" gradientTransform="matrix(34.353,0,0,54.8562,66.8563,33.9498)"><stop offset="0" style="stop-color:#f72585;stop-opacity:1"/><stop offset="1" style="stop-color:#6320ee;stop-opacity:1"/></linearGradient></defs></svg>