<?xml version="1.0" encoding="UTF-8" standalone="no"?>
<!-- Generator: Adobe Illustrator 27.3.1, SVG Export Plug-In . SVG Version: 6.00 Build 0)  -->

<svg
   version="1.1"
   id="Layer_1"
   x="0px"
   y="0px"
   viewBox="0 0 2600 2600"
   xml:space="preserve"
   sodipodi:docname="Wafer.Space.black.svg"
   width="2600"
   height="2600"
   inkscape:export-filename="Wafer.Space.black.small.png"
   inkscape:export-xdpi="2.4576001"
   inkscape:export-ydpi="2.4576001"
   inkscape:version="1.2.2 (b0a8486541, 2022-12-01)"
   xmlns:inkscape="http://www.inkscape.org/namespaces/inkscape"
   xmlns:sodipodi="http://sodipodi.sourceforge.net/DTD/sodipodi-0.dtd"
   xmlns="http://www.w3.org/2000/svg"
   xmlns:svg="http://www.w3.org/2000/svg"><defs
   id="defs21" /><sodipodi:namedview
   id="namedview19"
   pagecolor="#ffffff"
   bordercolor="#000000"
   borderopacity="0.25"
   inkscape:showpageshadow="2"
   inkscape:pageopacity="0.0"
   inkscape:pagecheckerboard="true"
   inkscape:deskcolor="#d1d1d1"
   showgrid="false"
   inkscape:zoom="0.22250293"
   inkscape:cx="1244.9274"
   inkscape:cy="1035.9414"
   inkscape:window-width="1582"
   inkscape:window-height="961"
   inkscape:window-x="0"
   inkscape:window-y="0"
   inkscape:window-maximized="1"
   inkscape:current-layer="Layer_1" />
<g
   id="g16"
   transform="translate(-247.995,-200)">
	<path
   d="m 479.78,1066.58 c 0,-117.51 95.26,-212.78 212.78,-212.78 -117.51,0 -212.78,-95.26 -212.78,-212.78 0,117.51 -95.26,212.78 -212.78,212.78 117.51,0 212.78,95.27 212.78,212.78 z"
   id="path2" />
	<path
   d="m 2555.72,1987.19 c 0,75.43 -61.14,136.57 -136.57,136.57 75.43,0 136.57,61.15 136.57,136.57 0,-75.43 61.15,-136.57 136.58,-136.57 -75.43,0.01 -136.58,-61.14 -136.58,-136.57 z"
   id="path4" />
	<path
   d="m 1016.95,1642.89 c 8.12,8.12 21.29,8.12 29.41,0 l 113.79,-113.78 c 8.12,-8.12 21.29,-8.12 29.41,0 l 113.83,113.85 c 8.12,8.12 21.29,8.12 29.41,0 l 128.6,-128.63 0.01,0.01 158.41,-158.4 c 8.12,-8.12 8.12,-21.29 0,-29.41 l -143.71,-143.7 c -8.12,-8.12 -21.29,-8.12 -29.41,0 l -113.85,113.84 c -8.12,8.12 -21.29,8.12 -29.41,0 l -113.85,-113.84 c -8.12,-8.12 -21.29,-8.12 -29.41,0 l -113.84,113.83 c -8.12,8.12 -21.29,8.12 -29.41,0 L 902.98,1182.72 c -8.12,-8.12 -21.29,-8.12 -29.41,0 l -143.71,143.7 c -8.12,8.12 -8.12,21.29 0,29.41 l 128.65,128.64 -0.02,0.01 z m 337.64,-308.22 100.26,-100.28 c 3.62,-3.62 9.5,-3.62 13.13,0 l 100.27,100.28 c 3.62,3.62 3.62,9.5 0,13.12 l -100.27,100.28 c -3.62,3.62 -9.5,3.62 -13.13,0 l -100.26,-100.28 c -3.63,-3.62 -3.63,-9.49 0,-13.12 z m -43.04,43.04 c 3.62,-3.62 9.5,-3.62 13.12,0 l 100.29,100.27 c 3.62,3.62 3.62,9.5 0,13.12 l -100.3,100.29 c -3.63,3.63 -9.51,3.62 -13.13,-0.01 -33.37,-33.41 -66.73,-66.82 -100.09,-100.24 -3.69,-3.69 -3.69,-9.67 0.01,-13.36 z m -243.47,-43.04 100.26,-100.28 c 3.63,-3.62 9.5,-3.62 13.13,0 l 100.26,100.28 c 3.62,3.62 3.62,9.5 0,13.12 l -100.26,100.27 c -3.62,3.62 -9.5,3.62 -13.13,0 l -50.14,-50.13 -50.13,-50.14 c -3.62,-3.62 -3.62,-9.49 0.01,-13.12 z m -43,42.98 c 3.62,-3.63 9.5,-3.63 13.13,0 l 50.14,50.13 50.13,50.14 c 3.62,3.62 3.62,9.5 0,13.12 l -100.26,100.28 c -3.62,3.63 -9.5,3.63 -13.13,0 L 924.83,1491.04 c -3.62,-3.62 -3.62,-9.5 0,-13.12 z m -243.6,-29.96 c -3.62,-3.62 -3.62,-9.5 0,-13.12 l 100.26,-100.28 c 3.62,-3.63 9.5,-3.63 13.13,0 l 100.26,100.28 c 3.62,3.62 3.62,9.5 0,13.12 l -100.26,100.28 c -3.62,3.63 -9.5,3.63 -13.13,0 z"
   id="path6" />
	<path
   d="m 1979.29,1698.25 -143.71,-143.7 c -8.12,-8.12 -21.29,-8.12 -29.41,0 l -158.42,158.4 0.01,0.01 -128.62,128.61 c -8.12,8.12 -8.12,21.29 0,29.41 l 128.66,128.64 -0.01,0.01 0.01,0.01 -128.56,128.54 c -8.12,8.12 -8.12,21.29 0,29.41 l 143.71,143.7 c 8.12,8.12 21.29,8.12 29.41,0 l 158.42,-158.4 -0.01,-0.01 128.56,-128.54 c 8.12,-8.12 8.12,-21.29 0,-29.41 l -128.66,-128.64 0.02,-0.01 -0.01,-0.01 128.62,-128.61 c 8.11,-8.12 8.11,-21.29 -0.01,-29.41 z m -408.56,164.58 c -3.62,-3.62 -3.62,-9.5 0,-13.12 L 1671,1749.43 c 3.62,-3.63 9.5,-3.63 13.13,0 l 100.26,100.28 c 3.63,3.62 3.63,9.5 0,13.12 l -100.26,100.28 c -3.63,3.62 -9.5,3.62 -13.13,0 z m 213.74,286.62 -100.26,100.28 c -3.62,3.63 -9.5,3.63 -13.13,0 l -100.26,-100.28 c -3.62,-3.62 -3.62,-9.5 0,-13.12 l 100.26,-100.27 c 3.62,-3.62 9.5,-3.63 13.13,0 l 50.14,50.13 50.13,50.14 c 3.62,3.62 3.62,9.49 -0.01,13.12 z m 143.26,-156.38 c 3.63,3.62 3.63,9.5 0,13.12 l -100.26,100.27 c -3.62,3.62 -9.5,3.63 -13.13,0 l -50.14,-50.13 -50.14,-50.14 c -3.62,-3.62 -3.62,-9.5 0,-13.12 l 100.27,-100.28 c 3.62,-3.63 9.5,-3.63 13.13,0 z m -0.03,-273.56 -100.27,100.28 c -3.62,3.63 -9.5,3.63 -13.13,0 l -100.26,-100.28 c -3.63,-3.62 -3.63,-9.5 0,-13.12 l 100.26,-100.28 c 3.63,-3.63 9.5,-3.63 13.13,0 l 100.27,100.28 c 3.62,3.62 3.62,9.5 0,13.12 z"
   id="path8" />
	<path
   d="m 2578.41,527.14 c -132.39,43.63 -223.74,109.29 -283.81,153.13 -124.14,90.64 -214.84,190.96 -278.63,275.15 -56.71,6.23 -113.42,12.46 -170.13,18.69 -94.45,70.73 -188.72,141.63 -283.17,212.36 94.7,3.34 189.41,6.69 284.31,9.83 -11.96,29.29 -23.74,58.76 -35.53,88.22 9.71,7.97 20.33,17.08 31.58,27.34 15.98,14.58 36.4,34.39 58.59,59.34 8.66,9.72 17.73,20.38 27.04,32 29.43,-11.59 59.05,-23 88.65,-34.42 1.96,94.93 4.11,189.67 6.26,284.41 71.91,-93.55 143.82,-187.1 215.9,-280.47 6.94,-56.63 13.72,-113.43 20.65,-170.06 85.16,-62.56 186.6,-151.98 278.64,-275.15 44.59,-59.51 111.39,-150.03 156.85,-281.69 21.27,-62.04 31.94,-115.28 37.38,-154.3 -38.9,5.13 -92.44,14.96 -154.58,35.62 z m -161.54,354.15 c -43.02,-0.27 -77.67,-35.36 -77.4,-78.38 0.27,-43.02 35.36,-77.68 78.38,-77.41 43.02,0.27 77.68,35.37 77.41,78.39 -0.28,43.01 -35.37,77.67 -78.39,77.4 z"
   id="path10" />
	<path
   d="m 2397.28,1157.97 c -25.78,23.07 -52.38,45.39 -80.05,66.72 38.27,97.94 59.51,204.42 59.51,315.92 0,479.72 -388.89,868.61 -868.61,868.61 -281.25,0 -530.96,-133.9 -689.69,-341.19 l -33.36,1.77 c -12.96,0.68 -25.99,1.11 -39.08,1.11 -11.63,0 -23.26,-0.32 -35,-1.11 -4.44,-0.27 -9.28,-0.91 -13.92,-1.36 172.69,264.83 471.3,440.04 811.04,440.04 534.54,0 967.87,-433.33 967.87,-967.87 0.01,-135.94 -28.13,-265.26 -78.71,-382.64 z"
   id="path12" />
	<path
   d="m 782.34,2017.62 c 7.99,-0.42 16.03,-0.57 23.96,-1.3 38.49,-3.21 76.43,-9.77 113.73,-18.76 44.27,-10.28 87.73,-23.72 129.74,-38.74 105.89,-38.04 206.09,-87.58 302.84,-141.75 48.39,-27.21 96.01,-55.91 142.47,-84.76 47.5,-29.66 94.01,-60.85 139.11,-94.09 87.1,-64 169.22,-135.04 246.2,-211.22 -6,-7.26 -12.06,-14.64 -17.75,-21.03 -17.31,-19.44 -35.75,-38.11 -54.86,-55.52 -9.23,-8.44 -17.77,-15.68 -25.93,-22.46 -68.93,76.22 -143.04,147.84 -222.77,213.36 -40.9,33.5 -83.03,65.45 -126.59,95.58 -44.39,31.21 -88.62,61.02 -133.66,89.8 -90.27,57.06 -183.52,109.54 -280.82,150.48 -52.71,21.99 -107,41.44 -162.15,54.2 -35.81,8.46 -71.76,14.09 -107.72,15.71 -2.53,0.11 -5.05,0.08 -7.58,0.16 -7.62,0.25 -15.25,0.49 -22.85,0.48 -32.24,-0.36 -63.83,-5.29 -94.04,-14.09 -17.11,-4.98 -33.89,-10.87 -49.8,-18.71 -44.52,-23.38 -84.96,-53.34 -103.3,-97.15 -20.34,-42.87 -21.97,-94.58 -12.71,-145 8.62,-50.97 28.87,-100.79 52.38,-148.35 10.26,-20.51 21.55,-40.54 33.29,-60.37 -1.98,25.28 -3.29,50.75 -3.29,76.54 0,116.51 21.02,228.01 58.81,331.43 l 39.26,11.46 c 25.27,7.37 51.17,11.19 77.01,11.76 -48.56,-108.31 -75.81,-228.26 -75.81,-354.65 0,-479.72 388.89,-868.61 868.61,-868.61 198.12,0 380.64,66.46 526.78,178.12 21.85,-25.22 44.42,-49.56 67.76,-72.96 -164.09,-127.97 -370.33,-204.42 -594.54,-204.42 -486.84,0 -889.58,359.49 -957.61,827.47 -25.56,34.51 -49.77,70.2 -71.25,107.86 -27.12,48.3 -51.54,99.52 -64.3,155.64 -13.15,55.37 -15.78,117.4 7.48,175.2 10.19,29.2 29.48,55.01 50.92,76.6 22.34,21.94 45.45,37.37 71.31,53.37 36.62,20.66 76.75,34.18 117.47,41.89 17.39,3.29 34.85,5.83 52.25,6.9 22.9,1.48 45.5,1.12 67.95,-0.07 z"
   id="path14" />
</g>
</svg>
