<?xml version="1.0" encoding="UTF-8" standalone="no"?>
<svg
   width="300"
   height="250"
   version="1.1"
   viewBox="0 0 79.3725 66.146"
   id="svg690"
   sodipodi:docname="corner-reducedmark-nasu-purple.svg"
   inkscape:version="1.2.2 (b0a8486541, 2022-12-01)"
   xmlns:inkscape="http://www.inkscape.org/namespaces/inkscape"
   xmlns:sodipodi="http://sodipodi.sourceforge.net/DTD/sodipodi-0.dtd"
   xmlns="http://www.w3.org/2000/svg"
   xmlns:svg="http://www.w3.org/2000/svg">
  <defs
     id="defs694" />
  <sodipodi:namedview
     id="namedview692"
     pagecolor="#ffffff"
     bordercolor="#666666"
     borderopacity="1.0"
     inkscape:showpageshadow="2"
     inkscape:pageopacity="0.0"
     inkscape:pagecheckerboard="0"
     inkscape:deskcolor="#d1d1d1"
     showgrid="false"
     inkscape:zoom="1.6574583"
     inkscape:cx="397.59673"
     inkscape:cy="241.33337"
     inkscape:window-width="3440"
     inkscape:window-height="1381"
     inkscape:window-x="0"
     inkscape:window-y="0"
     inkscape:window-maximized="1"
     inkscape:current-layer="svg690" />
  <g
     transform="matrix(0.73016881,0,0,0.73016881,673.77839,778.50275)"
     id="g688">
    <path
       d="m -828.76,-1018.3 c -2.7372,-0.2903 -5.5315,-0.39 -8.3705,-0.2821 -15.644,0.592 -29.689,6.8293 -39.542,16.982 -9.5994,9.891 -15.535,23.123 -14.929,37.626 0.33854,8.0962 2.5212,15.901 6.5212,22.813 0.33857,0.58484 0.68835,1.1638 1.0498,1.737 h 16.035 c -1.8774,-2.3653 -3.4554,-4.9267 -4.7304,-7.6149 -2.4855,-5.2414 -3.5867,-11.034 -3.34,-16.935 0.41988,-10.044 5.244,-18.885 12.442,-25.21 6.9238,-6.0835 16.342,-9.4459 26.493,-9.0618 7.1359,0.27005 13.623,2.6623 18.997,6.4063 -1.1066,-0.028 -2.2242,-0.02 -3.3516,0.052 -11.329,0.64491 -21.495,5.1263 -28.482,12.62 -6.7385,7.2275 -10.998,16.704 -10.344,27.101 0.27735,4.4111 1.2572,8.693 3.027,12.641 h 15.442 c 0,-0.15263 -0.54738,-0.92545 -0.78424,-1.3882 -0.16423,-0.32062 -0.31398,-0.64712 -0.46111,-0.97478 -1.4353,-3.1956 -1.9123,-6.7153 -1.6883,-10.278 0.3736,-5.9414 3.5167,-11.02 7.8579,-14.684 4.0619,-3.4292 9.5897,-5.0323 15.433,-4.6998 2.0348,0.11602 3.9477,0.57311 5.7212,1.2894 23.605,-38.19402 17.898,-75.83402 -36.934,-75.08602 -19.938,0.5661 -37.86,8.5075 -50.548,21.323 -12.432,12.557 -20.073,29.50902 -19.491,48.09802 0.327,10.428 3.1085,20.492 8.1647,29.438 1.3583,2.4028 2.8679,4.7293 4.525,6.9631 h 16.577 c -3.5641,-3.8756 -6.4936,-8.2103 -8.7479,-12.841 -3.5417,-7.2742 -5.2417,-15.328 -4.9836,-23.56 0.4431,-14.127 6.9749,-26.69102 17.004,-35.68102 9.7573,-8.747 23.055,-13.813 37.499,-13.404 8.751,0.2491 16.887,2.6507 23.938,6.6098 z"
       clip-rule="evenodd"
       fill="#5d16ce"
       fill-rule="evenodd"
       id="path686" />
  </g>
</svg>
