<?xml version="1.0" encoding="utf-8"?>
<!-- Generator: Adobe Illustrator 22.1.0, SVG Export Plug-In . SVG Version: 6.00 Build 0)  -->
<svg version="1.1" id="Layer_1" xmlns="http://www.w3.org/2000/svg" xmlns:xlink="http://www.w3.org/1999/xlink" x="0px" y="0px"
	 viewBox="0 0 395.2 181.3" style="enable-background:new 0 0 395.2 181.3;" xml:space="preserve">
<style type="text/css">
	.st0{fill:#343137;}
	.st1{fill:url(#SVGID_1_);}
	.st2{fill:url(#SVGID_2_);}
	.st3{fill:url(#SVGID_3_);}
	.st4{fill:url(#SVGID_4_);}
</style>
<path class="st0" d="M153.3,105.4c-8.1,0-12.8-3.5-12.8-10.2c0-8.1,8-11.3,18.9-12.3v-2.1c0-4.6-2.5-6.7-7.2-6.7
	c-2.9,0-6.1,0.9-8.5,2.1l-1.3-3.4c2.8-1.4,6.6-2.4,10.3-2.4c7.3,0,11.8,3.4,11.8,11v21.7C161.9,104.5,157.8,105.4,153.3,105.4z
	 M159.4,85.8c-8.6,1-13.6,3.4-13.6,9.3c0,4.6,2.8,7.1,8.1,7.1c2.1,0,4.3-0.4,5.6-1.1V85.8z"/>
<path class="st0" d="M191,104.8V81.5c0-5.1-2.1-7.6-7.6-7.6c-2.3,0-4.2,0.4-6,1.1v29.7h-5.5v-32c3.1-1.4,7.3-2.4,11.5-2.4
	c9.1,0,13.1,3.9,13.1,11.1v23.3H191z"/>
<path class="st0" d="M212.2,105.1c-4.8,0-8.1-2.9-8.1-8.5V74.5h-3.9v-3.4h3.9v-7.8l5.5-1.7v9.5h5.9v3.4h-5.9v22.1
	c0,2.9,1.4,4.7,4.2,4.7c0.6,0,1.2-0.1,1.7-0.2v3.5C214.6,104.9,213.5,105.1,212.2,105.1z"/>
<path class="st0" d="M258.5,104.8V81.3c0-4.4-2-7.3-6.9-7.3c-2.8,0-4.9,1.3-6.6,3.2v27.7h-5.5V80.4c0-3.9-2.1-6.5-7.1-6.5
	c-2.6,0-4.4,0.3-6.3,1.1v29.7h-5.4v-32c3.3-1.4,7-2.4,11.6-2.4c5.1,0,7.9,1.4,10.1,3.9c2.3-2.4,5.7-3.9,9.7-3.9
	c8.3,0,11.9,4.4,11.9,10.9v23.5H258.5z"/>
<path class="st0" d="M271.4,104.8v-12V82.4V71.1h3h2.5v8.6v8.2v17h-2.7H271.4z"/>
<path class="st0" d="M295.1,105.4c-8.1,0-13.1-7.2-13.1-17.5c0-10.3,5-17.5,13.1-17.5c3.1,0,5.8,0.8,7.6,2.2l-1.3,3.3
	c-1.3-1-3.3-1.7-5.3-1.7c-5.4,0-8.4,5.8-8.4,13.6c0,7.6,3.1,13.7,8.4,13.7c2,0,3.9-0.6,5.3-1.6l1.4,3.4
	C300.9,104.6,298.2,105.4,295.1,105.4z"/>
<path class="st0" d="M321.2,74.8c-1-0.4-2.2-0.6-3.4-0.6c-1.5,0-3.1,0.3-4.3,0.9v29.7H308v-32c2.9-1.4,6.7-2.4,11.5-2.4
	c1.3,0,2.6,0.1,2.9,0.2L321.2,74.8z"/>
<path class="st0" d="M336.6,105.4c-9.1,0-13.3-7.4-13.3-17.5c0-10.1,4.2-17.5,13.3-17.5c9.1,0,13.3,7.4,13.3,17.5
	C349.9,98.1,345.7,105.4,336.6,105.4z M336.6,73.9c-5.9,0-7.8,6.3-7.8,13.8s1.9,14,7.8,14c5.9,0,7.8-6.4,7.8-14
	S342.5,73.9,336.6,73.9z"/>
<g>
	<path class="st0" d="M88.3,88.4h5.8h3.5c0.3,1.2,1.4,2,2.6,2c1.5,0,2.7-1.2,2.7-2.7c0-1.5-1.2-2.8-2.7-2.8c-1.3,0-2.3,0.9-2.6,2.1
		H93l-4.7,0v-4h4.3c0,0,0.4,0,0.6-0.1c0.4-0.3,1.4-1.3,1.4-1.3l2.7-2.7c0.4,0.2,0.8,0.3,1.3,0.3c1.5,0,2.7-1.2,2.7-2.7
		c0-1.5-1.2-2.7-2.7-2.7c-1.5,0-2.7,1.2-2.7,2.7c0,0.5,0.2,1,0.4,1.5l-3.2,3.2c0,0-0.4,0.4-0.6,0.4c-0.1,0-0.3,0-0.3,0h-3.9v-1.7
		v-4.4c1.8-0.3,3.1-1.9,3.1-3.8c0-2.1-1.7-3.9-3.8-3.9c-2.1,0-3.9,1.7-3.9,3.9c0,1.9,1.4,3.4,3.1,3.8v6.1H83c0,0-0.2,0-0.3,0
		c-0.2-0.1-0.6-0.4-0.6-0.4l-3.2-3.2c0.3-0.4,0.4-0.9,0.4-1.5c0-1.5-1.2-2.7-2.7-2.7c-1.5,0-2.7,1.2-2.7,2.7c0,1.5,1.2,2.7,2.7,2.7
		c0.5,0,0.9-0.1,1.3-0.3l2.7,2.7c0,0,1,1,1.4,1.3c0.2,0.2,0.6,0.1,0.6,0.1h4.3v2.8V87l-4.4,0h-4.9c-0.3-1.2-1.4-2.1-2.6-2.1
		c-1.5,0-2.7,1.3-2.7,2.8c0,1.5,1.2,2.7,2.7,2.7c1.3,0,2.3-0.8,2.6-2h4.9h4.4v3.9h-4.3c0,0-0.4,0-0.6,0.1c-0.4,0.3-1.4,1.3-1.4,1.3
		l-2.7,2.7c-0.4-0.2-0.8-0.3-1.3-0.3c-1.5,0-2.7,1.2-2.7,2.7c0,1.5,1.2,2.7,2.7,2.7c1.5,0,2.7-1.2,2.7-2.7c0-0.5-0.2-1-0.4-1.5
		l3.2-3.2c0,0,0.4-0.4,0.6-0.4c0.1,0,0.3,0,0.3,0h3.9v2.8v3.3c-1.8,0.3-3.1,1.9-3.1,3.8c0,2.1,1.7,3.9,3.9,3.9
		c2.1,0,3.8-1.7,3.8-3.9c0-1.9-1.4-3.4-3.1-3.8v-6.1h3.9c0,0,0.2,0,0.3,0c0.2,0.1,0.6,0.4,0.6,0.4l3.2,3.2c-0.3,0.4-0.4,0.9-0.4,1.5
		c0,1.5,1.2,2.7,2.7,2.7c1.5,0,2.7-1.2,2.7-2.7c0-1.5-1.2-2.7-2.7-2.7c-0.5,0-0.9,0.1-1.3,0.3l-2.7-2.7c0,0-1-1-1.4-1.3
		c-0.2-0.2-0.6-0.1-0.6-0.1h-4.3V90V88.4z M100.3,86.3c0.7,0,1.3,0.6,1.3,1.3c0,0.7-0.6,1.3-1.3,1.3c-0.7,0-1.3-0.6-1.3-1.3
		C98.9,86.9,99.5,86.3,100.3,86.3z M98.6,75.1c0.7,0,1.3,0.6,1.3,1.3c0,0.7-0.6,1.3-1.3,1.3c-0.7,0-1.3-0.6-1.3-1.3
		C97.3,75.7,97.9,75.1,98.6,75.1z M76.6,77.8c-0.7,0-1.3-0.6-1.3-1.3c0-0.7,0.6-1.3,1.3-1.3c0.7,0,1.3,0.6,1.3,1.3
		C77.9,77.2,77.3,77.8,76.6,77.8z M74.9,89c-0.7,0-1.3-0.6-1.3-1.3c0-0.7,0.6-1.3,1.3-1.3c0.7,0,1.3,0.6,1.3,1.3
		C76.3,88.4,75.7,89,74.9,89z M76.6,100.2c-0.7,0-1.3-0.6-1.3-1.3c0-0.7,0.6-1.3,1.3-1.3c0.7,0,1.3,0.6,1.3,1.3
		C77.9,99.6,77.3,100.2,76.6,100.2z M98.6,97.5c0.7,0,1.3,0.6,1.3,1.3c0,0.7-0.6,1.3-1.3,1.3c-0.7,0-1.3-0.6-1.3-1.3
		C97.3,98.1,97.9,97.5,98.6,97.5z M87.6,106c-1.3,0-2.4-1.1-2.4-2.4c0-1.3,1.1-2.4,2.4-2.4c1.3,0,2.4,1.1,2.4,2.4
		C90,104.9,89,106,87.6,106z M87.6,69.3c1.3,0,2.4,1.1,2.4,2.4c0,1.3-1.1,2.4-2.4,2.4c-1.3,0-2.4-1.1-2.4-2.4
		C85.2,70.4,86.3,69.3,87.6,69.3z"/>
	<linearGradient id="SVGID_1_" gradientUnits="userSpaceOnUse" x1="54.0117" y1="107.2878" x2="54.0117" y2="63.4953">
		<stop  offset="0" style="stop-color:#2D2E32"/>
		<stop  offset="2.350235e-02" style="stop-color:#3E4044"/>
		<stop  offset="7.545573e-02" style="stop-color:#5C6268"/>
		<stop  offset="0.1331" style="stop-color:#778087"/>
		<stop  offset="0.1951" style="stop-color:#8E9AA3"/>
		<stop  offset="0.2629" style="stop-color:#A1B0BA"/>
		<stop  offset="0.3384" style="stop-color:#B0C3CD"/>
		<stop  offset="0.425" style="stop-color:#BCD1DB"/>
		<stop  offset="0.5293" style="stop-color:#C4DBE6"/>
		<stop  offset="0.6697" style="stop-color:#C9E1EC"/>
		<stop  offset="1" style="stop-color:#CAE3EE"/>
	</linearGradient>
	<path class="st1" d="M62.7,52.8l-14.5,8.4c-1.7,0.9-2.9,2.6-2.9,4.7c0,0.2,0,0.3,0,0.5v21.1v0.5v3.6c3.9,5.6,9.7,10.5,16,13.2
		c0,0-0.5-0.5-0.6-0.6c-0.4-0.5-0.7-1.1-0.8-1.8c0-0.1,0-0.6,0-0.7v-0.2V87.7v0v-14c0-0.1,0-0.2,0-0.3c0-0.4,0.1-0.7,0.2-1
		c-0.2-1.6-0.3-3.2-0.3-4.9C59.8,62.3,60.8,57.3,62.7,52.8z"/>
	<linearGradient id="SVGID_2_" gradientUnits="userSpaceOnUse" x1="83.4391" y1="130.0435" x2="42.8691" y2="89.4736">
		<stop  offset="0" style="stop-color:#2D2E32"/>
		<stop  offset="2.350235e-02" style="stop-color:#3E4044"/>
		<stop  offset="7.545573e-02" style="stop-color:#5C6268"/>
		<stop  offset="0.1331" style="stop-color:#778087"/>
		<stop  offset="0.1951" style="stop-color:#8E9AA3"/>
		<stop  offset="0.2629" style="stop-color:#A1B0BA"/>
		<stop  offset="0.3384" style="stop-color:#B0C3CD"/>
		<stop  offset="0.425" style="stop-color:#BCD1DB"/>
		<stop  offset="0.5293" style="stop-color:#C4DBE6"/>
		<stop  offset="0.6697" style="stop-color:#C9E1EC"/>
		<stop  offset="1" style="stop-color:#CAE3EE"/>
	</linearGradient>
	<path class="st2" d="M45.3,91.5V109c0,0.2,0,0.3,0,0.5c0,2,1.2,3.8,2.9,4.7l19.1,11c0.7,0,1.4,0.1,2,0.1c8.1,0,15.6-2.7,21.7-7.3
		l-1.5,0.9c-0.5,0.4-1.2,0.6-1.9,0.6c-0.2,0-0.5,0-0.7-0.1c-0.4-0.1-0.8-0.2-1.2-0.5l-24-13.8C61.5,104.8,50.5,99.2,45.3,91.5z"/>
	<linearGradient id="SVGID_3_" gradientUnits="userSpaceOnUse" x1="67.3149" y1="118.8305" x2="115.521" y2="118.8305">
		<stop  offset="0" style="stop-color:#7E2D2F"/>
		<stop  offset="3.716034e-02" style="stop-color:#883031"/>
		<stop  offset="0.1348" style="stop-color:#9E3836"/>
		<stop  offset="0.2479" style="stop-color:#B13E39"/>
		<stop  offset="0.3843" style="stop-color:#BF433C"/>
		<stop  offset="0.5679" style="stop-color:#C8463E"/>
		<stop  offset="1" style="stop-color:#CA473E"/>
	</linearGradient>
	<path class="st3" d="M115.2,102.7c-0.2,0.9-0.8,1.7-1.6,2.2c0,0-22.6,13-22.6,13c-7,4-13.6,7.3-21.7,7.3c-0.7,0-1.4,0-2-0.1
		l17.5,10.1c0.8,0.5,1.8,0.8,2.8,0.8c1.1,0,2-0.3,2.9-0.9l17.1-9.9c0,0,0.3-0.4,0.4-0.7c4.5-6.1,7.4-15.1,7.5-23.2
		C115.5,101.4,115.3,102.5,115.2,102.7z"/>
	<path class="st0" d="M129.9,65.8c0-1.9-1-3.6-2.6-4.5l-0.1,0c0,0-0.1,0-0.1-0.1l-18.6-10.7c-1.1-0.6-2.2-1-2.2-1s-1-0.4-1.4-0.4
		c-6.7,0.2-17.6,2.9-18.5,7c0.1,0,0.4-0.1,0.4-0.1c0.2,0,0.4-0.1,0.7-0.1c0.7,0,1.3,0.2,1.9,0.6l24,13.8c0,0,0,0,0.1,0l0,0
		c0.3,0.2,0.6,0.4,0.9,0.7c0.5,0.6,0.8,1.4,0.8,2.2c0,0,0,0,0,0.1c0,0,0,0,0,0c0,0,0,1.2,0,28.3c0,13.9-7.9,23.6-7.7,23.6
		c1.1-0.7,19.5-11.3,19.5-11.3c0,0,0.1,0,0.1-0.1l0.1,0c0,0,0,0,0,0c1.6-0.9,2.6-2.6,2.6-4.5C129.9,109.5,129.9,65.9,129.9,65.8z"/>
	<linearGradient id="SVGID_4_" gradientUnits="userSpaceOnUse" x1="98.5264" y1="44.2759" x2="55.484" y2="67.7537">
		<stop  offset="0" style="stop-color:#2D2E32"/>
		<stop  offset="2.350235e-02" style="stop-color:#3E4044"/>
		<stop  offset="7.545573e-02" style="stop-color:#5C6268"/>
		<stop  offset="0.1331" style="stop-color:#778087"/>
		<stop  offset="0.1951" style="stop-color:#8E9AA3"/>
		<stop  offset="0.2629" style="stop-color:#A1B0BA"/>
		<stop  offset="0.3384" style="stop-color:#B0C3CD"/>
		<stop  offset="0.425" style="stop-color:#BCD1DB"/>
		<stop  offset="0.5293" style="stop-color:#C4DBE6"/>
		<stop  offset="0.6697" style="stop-color:#C9E1EC"/>
		<stop  offset="1" style="stop-color:#CAE3EE"/>
	</linearGradient>
	<path class="st4" d="M61.8,70.3l24-13.8c0.3-0.2,11.7-6.2,20.3-6.1c0.9,0,1.7,0,2.5,0.1L90.5,40.1c-0.8-0.5-1.8-0.9-2.9-0.9
		c-1,0-2,0.3-2.8,0.8l-19,11l-3.1,1.8c-1.9,4.5-3,9.5-3,14.7c0,1.7,0.1,3.3,0.3,4.9C60.4,71.5,61,70.8,61.8,70.3z"/>
</g>
</svg>
